<?xml version="1.0" encoding="UTF-8"?>
<svg xmlns="http://www.w3.org/2000/svg" xmlns:xlink="http://www.w3.org/1999/xlink" width="800px" height="800px" viewBox="0 0 800 800" version="1.1">
<g id="surface1">
<path style=" stroke:none;fill-rule:nonzero;fill:rgb(21.960784%,16.862746%,45.09804%);fill-opacity:1;" d="M 718.40625 400 C 718.40625 575.859375 575.859375 718.40625 400 718.40625 C 224.140625 718.40625 81.59375 575.859375 81.59375 400 C 81.59375 224.140625 224.140625 81.59375 400 81.59375 C 575.859375 81.59375 718.40625 224.140625 718.40625 400 Z M 718.40625 400 "/>
<path style=" stroke:none;fill-rule:nonzero;fill:rgb(27.843139%,18.82353%,50.196081%);fill-opacity:1;" d="M 675.4375 400 C 675.4375 552.125 552.125 675.4375 400 675.4375 C 247.875 675.4375 124.5625 552.125 124.5625 400 C 124.5625 247.875 247.875 124.5625 400 124.5625 C 552.125 124.5625 675.4375 247.875 675.4375 400 Z M 675.4375 400 "/>
<path style=" stroke:none;fill-rule:nonzero;fill:rgb(21.960784%,16.862746%,45.09804%);fill-opacity:1;" d="M 524.8125 288.796875 L 504.640625 288.796875 L 498.390625 280.953125 L 498.390625 260.796875 C 498.390625 254.15625 493.046875 248.796875 486.40625 248.796875 L 287.203125 248.796875 C 273.921875 248.796875 263.203125 259.515625 263.203125 272.796875 L 263.203125 559.203125 C 263.203125 559.765625 263.203125 560.234375 263.28125 560.796875 C 264.09375 573.296875 274.484375 583.203125 287.203125 583.203125 L 524.8125 583.203125 C 531.453125 583.203125 536.796875 577.828125 536.796875 571.1875 L 536.796875 300.8125 C 536.796875 294.171875 531.453125 288.796875 524.8125 288.796875 Z M 524.8125 288.796875 "/>
<path style=" stroke:none;fill-rule:nonzero;fill:rgb(99.607843%,87.058824%,22.745098%);fill-opacity:1;" d="M 498.390625 550.390625 L 498.390625 244.796875 C 498.390625 238.15625 493.046875 232.78125 486.40625 232.78125 L 287.203125 232.78125 C 273.921875 232.78125 263.203125 243.53125 263.203125 256.8125 L 263.203125 543.1875 C 263.203125 556.46875 273.921875 567.21875 287.203125 567.21875 L 512.796875 567.21875 C 523.515625 567.21875 532.640625 560.15625 535.671875 550.390625 Z M 498.390625 550.390625 "/>
<path style=" stroke:none;fill-rule:nonzero;fill:rgb(90.588236%,67.843139%,15.294118%);fill-opacity:1;" d="M 285.84375 543.1875 L 285.84375 256.8125 C 285.84375 243.53125 296.5625 232.78125 309.84375 232.78125 L 287.203125 232.78125 C 273.921875 232.78125 263.203125 243.53125 263.203125 256.8125 L 263.203125 543.1875 C 263.203125 556.46875 273.921875 567.21875 287.203125 567.21875 L 309.84375 567.21875 C 296.5625 567.21875 285.84375 556.46875 285.84375 543.1875 Z M 285.84375 543.1875 "/>
<path style=" stroke:none;fill-rule:nonzero;fill:rgb(100%,78.039217%,20%);fill-opacity:1;" d="M 498.390625 272.796875 L 498.390625 497.609375 C 498.390625 504.25 493.046875 509.59375 486.40625 509.59375 L 287.203125 509.59375 C 273.921875 509.59375 263.203125 520.3125 263.203125 533.59375 L 263.203125 543.1875 C 263.203125 556.46875 273.921875 567.21875 287.203125 567.21875 L 524.8125 567.21875 C 531.453125 567.21875 536.796875 561.84375 536.796875 555.203125 L 536.796875 284.796875 C 536.796875 278.15625 531.453125 272.796875 524.8125 272.796875 Z M 498.390625 272.796875 "/>
<path style=" stroke:none;fill-rule:nonzero;fill:rgb(90.588236%,67.843139%,15.294118%);fill-opacity:1;" d="M 520.484375 497.609375 L 520.484375 272.796875 L 498.390625 272.796875 L 498.390625 497.609375 C 498.390625 504.25 493.046875 509.59375 486.40625 509.59375 L 508.46875 509.59375 C 515.109375 509.59375 520.484375 504.25 520.484375 497.609375 Z M 520.484375 497.609375 "/>
<path style=" stroke:none;fill-rule:nonzero;fill:rgb(90.588236%,67.843139%,15.294118%);fill-opacity:1;" d="M 285.28125 543.1875 L 285.28125 533.59375 C 285.28125 520.3125 296 509.59375 309.28125 509.59375 L 287.203125 509.59375 C 273.921875 509.59375 263.203125 520.3125 263.203125 533.59375 L 263.203125 543.1875 C 263.203125 556.46875 273.921875 567.21875 287.203125 567.21875 L 309.28125 567.21875 C 296 567.21875 285.28125 556.46875 285.28125 543.1875 Z M 285.28125 543.1875 "/>
<path style=" stroke:none;fill-rule:nonzero;fill:rgb(81.960785%,82.745099%,83.137256%);fill-opacity:1;" d="M 516.15625 540.71875 L 491.671875 508.328125 C 490.09375 509.125 488.328125 509.515625 486.40625 509.515625 L 287.203125 509.515625 C 273.921875 509.515625 263.203125 520.234375 263.203125 533.515625 C 263.203125 539.671875 268.234375 544.71875 274.390625 544.71875 L 507.125 544.71875 C 510.71875 544.796875 513.921875 543.1875 516.15625 540.71875 Z M 516.15625 540.71875 "/>
<path style=" stroke:none;fill-rule:nonzero;fill:rgb(100%,100%,100%);fill-opacity:1;" d="M 519.1875 532.71875 L 519.1875 295.359375 C 519.1875 292.65625 518.3125 289.984375 516.65625 287.921875 L 498.390625 264.96875 L 498.390625 497.609375 C 498.390625 502.703125 495.125 507.125 490.546875 508.796875 L 504.890625 526.8125 L 516.09375 540.796875 C 518 538.71875 519.1875 535.84375 519.1875 532.71875 Z M 519.1875 532.71875 "/>
<path style=" stroke:none;fill-rule:nonzero;fill:rgb(100%,100%,100%);fill-opacity:1;" d="M 498.390625 439.765625 L 498.390625 450 L 519.1875 470.796875 L 519.1875 295.359375 C 519.1875 292.65625 518.3125 289.984375 516.65625 287.921875 L 498.390625 264.96875 L 498.390625 332.078125 C 507.125 348.078125 512.078125 366.40625 512.078125 385.90625 C 512.078125 405.4375 507.125 423.75 498.390625 439.765625 Z M 498.390625 439.765625 "/>
<path style=" stroke:none;fill-rule:nonzero;fill:rgb(90.588236%,67.843139%,15.294118%);fill-opacity:1;" d="M 498.390625 497.609375 L 498.390625 450 L 494.625 446.234375 C 496 444.171875 497.1875 442 498.390625 439.765625 L 498.390625 332.078125 C 479.265625 297.046875 442.15625 273.296875 399.4375 273.296875 C 337.203125 273.296875 286.796875 323.6875 286.796875 385.90625 C 286.796875 448.171875 337.203125 498.5625 399.4375 498.5625 C 421.609375 498.5625 442.3125 492.15625 459.765625 481.03125 L 469.671875 490.96875 L 488.15625 509.453125 C 489.359375 509.28125 490.546875 508.890625 491.671875 508.40625 C 495.609375 506.46875 498.390625 502.390625 498.390625 497.609375 Z M 498.390625 497.609375 "/>
<path style=" stroke:none;fill-rule:nonzero;fill:rgb(90.588236%,67.843139%,15.294118%);fill-opacity:1;" d="M 519.1875 470.796875 L 519.1875 532.71875 C 519.1875 534.96875 518.5625 537.03125 517.53125 538.890625 L 529.4375 550.8125 C 530.328125 551.6875 531.28125 552.5625 532.328125 553.265625 C 532.640625 553.515625 532.953125 553.765625 533.34375 554 C 534.078125 554.5 534.71875 554.890625 535.453125 555.28125 C 535.90625 555.515625 536.328125 555.765625 536.796875 555.90625 C 536.796875 555.6875 536.796875 555.515625 536.796875 555.28125 L 536.796875 488.46875 Z M 519.1875 470.796875 "/>
<path style=" stroke:none;fill-rule:nonzero;fill:rgb(81.960785%,82.745099%,83.137256%);fill-opacity:1;" d="M 519.1875 470.796875 L 498.390625 450 L 498.390625 497.609375 C 498.390625 502.390625 495.609375 506.46875 491.59375 508.40625 C 490.484375 508.890625 489.359375 509.28125 488.09375 509.453125 L 517.53125 538.890625 C 518.5625 537.109375 519.1875 534.96875 519.1875 532.71875 Z M 519.1875 470.796875 "/>
<path style=" stroke:none;fill-rule:nonzero;fill:rgb(81.960785%,82.745099%,83.137256%);fill-opacity:1;" d="M 512.078125 385.90625 C 512.078125 366.40625 507.125 348.078125 498.390625 332.078125 L 498.390625 439.765625 C 507.125 423.75 512.078125 405.4375 512.078125 385.90625 Z M 512.078125 385.90625 "/>
<path style=" stroke:none;fill-rule:nonzero;fill:rgb(93.725491%,35.294119%,61.56863%);fill-opacity:1;" d="M 529.4375 534.796875 L 442.40625 447.75 L 477.265625 412.890625 L 564.328125 499.921875 C 573.921875 509.515625 573.921875 525.203125 564.328125 534.796875 C 554.71875 544.40625 539.03125 544.40625 529.4375 534.796875 Z M 529.4375 534.796875 "/>
<path style=" stroke:none;fill-rule:nonzero;fill:rgb(65.490198%,16.078432%,45.09804%);fill-opacity:1;" d="M 538.09375 526.171875 L 451.046875 439.203125 L 442.40625 447.75 L 529.4375 534.796875 C 539.03125 544.40625 554.71875 544.40625 564.328125 534.796875 C 565.84375 533.28125 567.046875 531.6875 568.09375 529.9375 C 558.640625 535.59375 546.171875 534.328125 538.09375 526.171875 Z M 538.09375 526.171875 "/>
<path style=" stroke:none;fill-rule:nonzero;fill:rgb(65.490198%,16.078432%,45.09804%);fill-opacity:1;" d="M 477.265625 412.96875 L 442.40625 447.75 L 469.609375 474.953125 C 483.28125 465.59375 495.125 453.765625 504.5 440.09375 Z M 477.265625 412.96875 "/>
<path style=" stroke:none;fill-rule:nonzero;fill:rgb(17.647059%,73.333335%,64.705884%);fill-opacity:1;" d="M 399.4375 257.28125 C 337.203125 257.28125 286.796875 307.6875 286.796875 369.921875 C 286.796875 432.15625 337.203125 482.5625 399.4375 482.5625 C 461.671875 482.5625 512.078125 432.15625 512.078125 369.921875 C 512.078125 307.765625 461.671875 257.28125 399.4375 257.28125 Z M 399.4375 257.28125 "/>
<path style=" stroke:none;fill-rule:nonzero;fill:rgb(0%,64.705884%,54.901963%);fill-opacity:1;" d="M 399.4375 257.28125 C 337.203125 257.28125 286.796875 307.6875 286.796875 369.921875 C 286.796875 432.15625 337.203125 482.5625 399.4375 482.5625 C 461.671875 482.5625 512.078125 432.15625 512.078125 369.921875 C 512.078125 307.765625 461.671875 257.28125 399.4375 257.28125 Z M 399.4375 476.484375 C 340.65625 476.484375 292.96875 428.8125 292.96875 370 C 292.96875 311.203125 340.65625 263.53125 399.4375 263.53125 C 458.25 263.53125 505.90625 311.203125 505.90625 370 C 505.90625 428.8125 458.25 476.484375 399.4375 476.484375 Z M 399.4375 476.484375 "/>
<path style=" stroke:none;fill-rule:nonzero;fill:rgb(0%,64.705884%,54.901963%);fill-opacity:1;" d="M 399.4375 280.71875 C 350.171875 280.71875 310.234375 320.625 310.234375 369.921875 C 310.234375 419.1875 350.171875 459.125 399.4375 459.125 C 448.734375 459.125 488.640625 419.1875 488.640625 369.921875 C 488.640625 320.734375 448.734375 280.71875 399.4375 280.71875 Z M 399.4375 451.6875 C 354.328125 451.6875 317.671875 415.109375 317.671875 369.921875 C 317.671875 324.8125 354.25 288.15625 399.4375 288.15625 C 444.5625 288.15625 481.203125 324.734375 481.203125 369.921875 C 481.203125 415.109375 444.5625 451.6875 399.4375 451.6875 Z M 399.4375 451.6875 "/>
<path style=" stroke:none;fill-rule:nonzero;fill:rgb(93.725491%,35.294119%,61.56863%);fill-opacity:1;" d="M 481.28125 369.921875 C 481.28125 415.109375 444.625 451.765625 399.4375 451.765625 C 354.25 451.765625 317.609375 415.109375 317.609375 369.921875 C 317.609375 324.734375 354.25 288.09375 399.4375 288.09375 C 444.625 288.09375 481.28125 324.734375 481.28125 369.921875 Z M 481.28125 369.921875 "/>
<path style=" stroke:none;fill-rule:nonzero;fill:rgb(65.490198%,16.078432%,45.09804%);fill-opacity:1;" d="M 399.4375 300.390625 C 442.546875 300.390625 477.828125 333.765625 481.03125 376.078125 C 481.203125 374.078125 481.28125 372 481.28125 369.921875 C 481.28125 324.734375 444.625 288.09375 399.4375 288.09375 C 354.25 288.15625 317.609375 324.8125 317.609375 369.921875 C 317.609375 372 317.671875 374 317.84375 376.078125 C 321.046875 333.765625 356.328125 300.390625 399.4375 300.390625 Z M 399.4375 300.390625 "/>
<path style=" stroke:none;fill-rule:nonzero;fill:rgb(65.490198%,16.078432%,45.09804%);fill-opacity:1;" d="M 383.6875 353.125 L 442.40625 353.125 C 445.84375 353.125 448.734375 350.3125 448.734375 346.796875 L 448.734375 343.1875 C 448.734375 339.765625 445.921875 336.890625 442.40625 336.890625 L 383.6875 336.890625 C 380.25 336.890625 377.375 339.671875 377.375 343.1875 L 377.375 346.875 C 377.4375 350.3125 380.25 353.125 383.6875 353.125 Z M 383.6875 353.125 "/>
<path style=" stroke:none;fill-rule:nonzero;fill:rgb(100%,100%,100%);fill-opacity:1;" d="M 383.6875 348 L 442.40625 348 C 445.84375 348 448.734375 345.1875 448.734375 341.671875 L 448.734375 337.984375 C 448.734375 334.5625 445.921875 331.6875 442.40625 331.6875 L 383.6875 331.6875 C 380.25 331.6875 377.375 334.46875 377.375 337.984375 L 377.375 341.671875 C 377.4375 345.1875 380.25 348 383.6875 348 Z M 383.6875 348 "/>
<path style=" stroke:none;fill-rule:nonzero;fill:rgb(81.960785%,82.745099%,83.137256%);fill-opacity:1;" d="M 440.65625 339.921875 L 385.59375 339.921875 C 382.5625 339.921875 380 338.234375 378.5625 335.84375 C 377.828125 337.03125 377.4375 338.40625 377.4375 339.921875 C 377.4375 344.40625 381.03125 348.078125 385.59375 348.078125 L 440.65625 348.078125 C 445.125 348.078125 448.796875 344.484375 448.796875 339.921875 C 448.796875 338.46875 448.390625 337.03125 447.6875 335.84375 C 446.234375 338.328125 443.609375 339.921875 440.65625 339.921875 Z M 440.65625 339.921875 "/>
<path style=" stroke:none;fill-rule:nonzero;fill:rgb(65.490198%,16.078432%,45.09804%);fill-opacity:1;" d="M 352.875 386.640625 L 442.484375 386.640625 C 445.921875 386.640625 448.796875 383.84375 448.796875 380.328125 L 448.796875 376.640625 C 448.796875 373.1875 446 370.3125 442.484375 370.3125 L 352.875 370.3125 C 349.4375 370.3125 346.5625 373.125 346.5625 376.640625 L 346.5625 380.328125 C 346.5625 383.84375 349.359375 386.640625 352.875 386.640625 Z M 352.875 386.640625 "/>
<path style=" stroke:none;fill-rule:nonzero;fill:rgb(100%,100%,100%);fill-opacity:1;" d="M 352.875 381.59375 L 442.484375 381.59375 C 445.921875 381.59375 448.796875 378.8125 448.796875 375.265625 L 448.796875 371.609375 C 448.796875 368.15625 446 365.28125 442.484375 365.28125 L 352.875 365.28125 C 349.4375 365.28125 346.5625 368.09375 346.5625 371.609375 L 346.5625 375.265625 C 346.5625 378.8125 349.359375 381.59375 352.875 381.59375 Z M 352.875 381.59375 "/>
<path style=" stroke:none;fill-rule:nonzero;fill:rgb(81.960785%,82.745099%,83.137256%);fill-opacity:1;" d="M 440.65625 373.515625 L 354.71875 373.515625 C 351.6875 373.515625 349.125 371.84375 347.6875 369.4375 C 346.953125 370.625 346.5625 372 346.5625 373.515625 C 346.5625 378 350.171875 381.6875 354.71875 381.6875 L 440.65625 381.6875 C 445.125 381.6875 448.796875 378.078125 448.796875 373.515625 C 448.796875 372.0625 448.390625 370.625 447.6875 369.4375 C 446.234375 371.84375 443.609375 373.515625 440.65625 373.515625 Z M 440.65625 373.515625 "/>
<path style=" stroke:none;fill-rule:nonzero;fill:rgb(65.490198%,16.078432%,45.09804%);fill-opacity:1;" d="M 352.875 420.234375 L 442.484375 420.234375 C 445.921875 420.234375 448.796875 417.4375 448.796875 413.921875 L 448.796875 410.234375 C 448.796875 406.8125 446 403.9375 442.484375 403.9375 L 352.875 403.9375 C 349.4375 403.9375 346.5625 406.71875 346.5625 410.234375 L 346.5625 413.921875 C 346.5625 417.359375 349.359375 420.234375 352.875 420.234375 Z M 352.875 420.234375 "/>
<path style=" stroke:none;fill-rule:nonzero;fill:rgb(100%,100%,100%);fill-opacity:1;" d="M 352.875 415.109375 L 442.484375 415.109375 C 445.921875 415.109375 448.796875 412.328125 448.796875 408.796875 L 448.796875 405.125 C 448.796875 401.6875 446 398.796875 442.484375 398.796875 L 352.875 398.796875 C 349.4375 398.796875 346.5625 401.609375 346.5625 405.125 L 346.5625 408.796875 C 346.5625 412.328125 349.359375 415.109375 352.875 415.109375 Z M 352.875 415.109375 "/>
<path style=" stroke:none;fill-rule:nonzero;fill:rgb(81.960785%,82.745099%,83.137256%);fill-opacity:1;" d="M 440.65625 407.03125 L 354.71875 407.03125 C 351.6875 407.03125 349.125 405.375 347.6875 402.953125 C 346.953125 404.15625 346.5625 405.515625 346.5625 407.03125 C 346.5625 411.53125 350.171875 415.203125 354.71875 415.203125 L 440.65625 415.203125 C 445.125 415.203125 448.796875 411.59375 448.796875 407.03125 C 448.796875 405.59375 448.390625 404.15625 447.6875 402.953125 C 446.234375 405.375 443.609375 407.03125 440.65625 407.03125 Z M 440.65625 407.03125 "/>
</g>
</svg>
