<svg xmlns="http://www.w3.org/2000/svg" width="600" height="400" viewBox="0 0 600 400" fill="none"><g clip-path="url(#clip0_313_2808)"><path d="M299.607 390.667L4.21875 391.148V216.964H299.607V390.667Z" fill="white"></path><path d="M61.1367 384.579H22.5684L30.2361 227.038H53.4689L61.1367 384.579Z" fill="#92DBAC"></path><path d="M153.402 154.507L9.99609 213.902H296.805L153.402 154.507Z" fill="white"></path><path d="M296.804 214.383H9.9957C9.76619 214.383 9.56947 214.221 9.52357 213.996C9.47985 213.771 9.60007 213.545 9.8121 213.458L153.215 154.063C153.333 154.015 153.465 154.015 153.583 154.063L296.986 213.458C297.198 213.545 297.318 213.771 297.274 213.996C297.229 214.221 297.032 214.383 296.802 214.383H296.804ZM12.4132 213.421H294.387L153.399 155.027L12.4132 213.421Z" fill="#123761"></path><path d="M259.016 206.866H51.1361C50.8717 206.866 50.6553 206.651 50.6553 206.385C50.6553 206.118 50.8695 205.904 51.1361 205.904H259.016C259.28 205.904 259.497 206.118 259.497 206.385C259.497 206.651 259.283 206.866 259.016 206.866Z" fill="#123761"></path><path d="M58.7864 235.41H24.9175C21.6104 235.41 18.9307 232.664 18.9307 229.276V227.661C18.9307 224.273 21.6104 221.528 24.9175 221.528H58.7864C62.0935 221.528 64.7733 224.273 64.7733 227.661V229.276C64.7733 232.664 62.0935 235.41 58.7864 235.41Z" fill="#92DBAC"></path><path d="M53.8758 235.891H29.6244C29.3599 235.891 29.1436 235.676 29.1436 235.41C29.1436 235.143 29.3578 234.929 29.6244 234.929H53.8758C54.1403 234.929 54.3567 235.143 54.3567 235.41C54.3567 235.676 54.1425 235.891 53.8758 235.891Z" fill="#123761"></path><path d="M299.607 392.028H288.901C288.636 392.028 288.42 391.814 288.42 391.548C288.42 391.281 288.634 391.067 288.901 391.067H299.607C299.871 391.067 300.088 391.281 300.088 391.548C300.088 391.814 299.873 392.028 299.607 392.028Z" fill="#123761"></path><path d="M234.592 392.028H216.188C215.923 392.028 215.707 391.814 215.707 391.548C215.707 391.281 215.921 391.067 216.188 391.067H234.592C234.857 391.067 235.073 391.281 235.073 391.548C235.073 391.814 234.859 392.028 234.592 392.028Z" fill="#123761"></path><path d="M161.477 392.028H142.262C141.998 392.028 141.781 391.814 141.781 391.548C141.781 391.281 141.995 391.067 142.262 391.067H161.477C161.742 391.067 161.958 391.281 161.958 391.548C161.958 391.814 161.744 392.028 161.477 392.028Z" fill="#123761"></path><path d="M88.0901 392.028H69.3578C69.0933 392.028 68.877 391.814 68.877 391.548C68.877 391.281 69.0912 391.067 69.3578 391.067H88.0901C88.3546 391.067 88.5709 391.281 88.5709 391.548C88.5709 391.814 88.3567 392.028 88.0901 392.028Z" fill="#123761"></path><path d="M305.281 400H0V391.067H3.7377V222.009H0V213.075H304.739V222.009H300.087V391.067H305.281V400ZM0.961749 399.038H304.319V392.028H299.126V221.049H303.777V214.039H0.961749V221.049H4.69945V391.069H14.3475V392.031H0.961749V399.04V399.038Z" fill="#123761"></path><path d="M69.3597 382.514H14.3477V391.681H69.3597V382.514Z" fill="#92DBAC"></path><path d="M61.1371 382.995H22.5688C22.3043 382.995 22.0879 382.78 22.0879 382.514C22.0879 382.247 22.3021 382.033 22.5688 382.033H61.1371C61.4016 382.033 61.6179 382.247 61.6179 382.514C61.6179 382.78 61.4037 382.995 61.1371 382.995Z" fill="#123761"></path><path d="M134.69 384.214H96.1221L103.79 226.675H127.023L134.69 384.214Z" fill="#92DBAC"></path><path d="M132.203 220.898H98.3345C95.0281 220.898 92.3477 223.579 92.3477 226.885V228.461C92.3477 231.768 95.0281 234.448 98.3345 234.448H132.203C135.51 234.448 138.19 231.768 138.19 228.461V226.885C138.19 223.579 135.51 220.898 132.203 220.898Z" fill="#92DBAC"></path><path d="M127.521 234.929H103.291C103.027 234.929 102.811 234.715 102.811 234.448C102.811 234.181 103.025 233.967 103.291 233.967H127.521C127.785 233.967 128.002 234.181 128.002 234.448C128.002 234.715 127.788 234.929 127.521 234.929Z" fill="#123761"></path><path d="M142.774 382.383H87.7617V391.55H142.774V382.383Z" fill="#92DBAC"></path><path d="M134.971 382.995H96.1225C95.858 382.995 95.6416 382.78 95.6416 382.514C95.6416 382.247 95.8558 382.033 96.1225 382.033H134.971C135.235 382.033 135.451 382.247 135.451 382.514C135.451 382.78 135.237 382.995 134.971 382.995Z" fill="#123761"></path><path d="M207.967 384.579H169.398L177.066 227.038H200.299L207.967 384.579Z" fill="#92DBAC"></path><path d="M205.617 220.898H171.749C168.442 220.898 165.762 223.579 165.762 226.885V228.461C165.762 231.768 168.442 234.448 171.749 234.448H205.617C208.924 234.448 211.604 231.768 211.604 228.461V226.885C211.604 223.579 208.924 220.898 205.617 220.898Z" fill="#92DBAC"></path><path d="M200.839 234.929H176.4C176.135 234.929 175.919 234.715 175.919 234.448C175.919 234.181 176.133 233.967 176.4 233.967H200.839C201.104 233.967 201.32 234.181 201.32 234.448C201.32 234.715 201.106 234.929 200.839 234.929Z" fill="#123761"></path><path d="M216.19 382.514H161.178V391.681H216.19V382.514Z" fill="#92DBAC"></path><path d="M207.967 382.995H169.399C169.134 382.995 168.918 382.78 168.918 382.514C168.918 382.247 169.132 382.033 169.399 382.033H207.967C208.232 382.033 208.448 382.247 208.448 382.514C208.448 382.78 208.234 382.995 207.967 382.995Z" fill="#123761"></path><path d="M281.384 384.579H242.815L250.483 227.038H273.716L281.384 384.579Z" fill="#92DBAC"></path><path d="M279.033 220.898H245.165C241.858 220.898 239.178 223.579 239.178 226.885V228.461C239.178 231.768 241.858 234.448 245.165 234.448H279.033C282.34 234.448 285.02 231.768 285.02 228.461V226.885C285.02 223.579 282.34 220.898 279.033 220.898Z" fill="#92DBAC"></path><path d="M274.522 234.929H249.628C249.364 234.929 249.147 234.715 249.147 234.448C249.147 234.181 249.362 233.967 249.628 233.967H274.522C274.787 233.967 275.003 234.181 275.003 234.448C275.003 234.715 274.789 234.929 274.522 234.929Z" fill="#123761"></path><path d="M289.605 382.514H234.593V391.681H289.605V382.514Z" fill="#92DBAC"></path><path d="M281.381 382.995H242.913C242.649 382.995 242.433 382.78 242.433 382.514C242.433 382.247 242.647 382.033 242.913 382.033H281.381C281.646 382.033 281.862 382.247 281.862 382.514C281.862 382.78 281.648 382.995 281.381 382.995Z" fill="#123761"></path><path d="M299.607 222.011H281.707C281.443 222.011 281.227 221.797 281.227 221.53C281.227 221.263 281.441 221.049 281.707 221.049H299.607C299.871 221.049 300.088 221.263 300.088 221.53C300.088 221.797 299.874 222.011 299.607 222.011Z" fill="#123761"></path><path d="M242.494 222.011H208.293C208.029 222.011 207.812 221.797 207.812 221.53C207.812 221.263 208.027 221.049 208.293 221.049H242.494C242.759 221.049 242.975 221.263 242.975 221.53C242.975 221.797 242.761 222.011 242.494 222.011Z" fill="#123761"></path><path d="M169.073 222.011H134.426C134.162 222.011 133.945 221.797 133.945 221.53C133.945 221.263 134.16 221.049 134.426 221.049H169.073C169.338 221.049 169.554 221.263 169.554 221.53C169.554 221.797 169.34 222.011 169.073 222.011Z" fill="#123761"></path><path d="M96.1227 222.011H59.0561C58.7916 222.011 58.5752 221.797 58.5752 221.53C58.5752 221.263 58.7894 221.049 59.0561 221.049H96.1227C96.3872 221.049 96.6036 221.263 96.6036 221.53C96.6036 221.797 96.3894 222.011 96.1227 222.011Z" fill="#123761"></path><path d="M24.2772 222.011H4.21818C3.9537 222.011 3.7373 221.797 3.7373 221.53C3.7373 221.263 3.95151 221.049 4.21818 221.049H24.2772C24.5417 221.049 24.7581 221.263 24.7581 221.53C24.7581 221.797 24.5439 222.011 24.2772 222.011Z" fill="#123761"></path><path d="M395.377 212.717V0.480835H599.038V217.191H585.648L395.377 212.717Z" fill="white"></path><path d="M599.519 217.672H585.648V216.71H598.558V0.961749H395.858V212.715H394.896V0H599.519V217.672Z" fill="#123761"></path><path d="M585.648 217.191H395.377V212.717L585.648 217.191Z" fill="white"></path><path d="M448.968 55.7486L451.672 34.6054C451.672 34.6054 435.639 19.4623 446.671 8.03276C454.634 -0.216425 466.853 12.6491 476.929 13.8579C487.006 15.0666 495.648 17.3136 502.717 37.9803C509.788 58.647 524.866 90.9945 528.219 100.739L452.295 96.118L448.968 55.7486Z" fill="#123761"></path><path d="M402.101 140.199C402.101 140.199 422.037 117.467 430.147 106.839C436.853 98.0502 446.822 92.3694 457.79 91.0491C464.12 90.2863 472.002 87.5366 481.04 87.4185C493.259 87.259 507.445 88.7475 519.878 91.0491C536.439 94.1136 551.065 103.742 560.579 117.655L583.259 150.815L557.545 163.366L564.203 217.189H426L402.101 140.197V140.199Z" fill="#92DBAC"></path><path d="M550.533 162.82L577.021 153.86C577.021 153.86 609.124 198.09 589.097 217.189C569.071 236.288 515.593 176.706 505.86 163.266C505.86 163.266 499.596 164.721 500.49 160.577C500.49 160.577 492.881 163.377 492.881 157.666C492.881 157.666 485.049 159.694 486.616 152.295C486.616 152.295 479.093 161.11 476.783 159.937C473.235 158.131 477.554 150.721 480.798 145.121C484.042 139.521 495.329 125.672 520.179 140.87C540.435 153.259 550.531 162.817 550.531 162.817L550.533 162.82Z" fill="white"></path><path d="M579.263 221.412C575.194 221.412 570.461 220.116 565.091 217.523L565.508 216.658C575.841 221.646 583.666 221.709 588.765 216.844C598.909 207.167 595.106 190.684 590.129 178.562C584.693 165.322 576.711 154.256 576.63 154.144L577.408 153.58C577.489 153.692 585.53 164.839 591.012 178.181C598.319 195.971 597.773 209.58 589.427 217.539C586.721 220.12 583.322 221.412 579.263 221.412Z" fill="#123761"></path><path d="M579.266 221.412C574.986 221.412 569.97 219.976 564.247 217.106C564.009 216.986 563.913 216.697 564.033 216.461C564.153 216.223 564.44 216.129 564.678 216.247C575.423 221.639 583.528 221.838 588.766 216.844C588.929 216.688 589.089 216.531 589.244 216.371C589.43 216.181 589.734 216.179 589.924 216.365C590.114 216.551 590.116 216.855 589.931 217.045C589.767 217.211 589.6 217.375 589.43 217.539C586.722 220.12 583.325 221.412 579.266 221.412Z" fill="#123761"></path><path d="M580.512 188.216C580.405 188.216 580.295 188.181 580.206 188.107L551.596 164.599C551.391 164.43 551.362 164.127 551.53 163.921C551.699 163.716 552.003 163.685 552.208 163.856L580.818 187.364C581.023 187.532 581.052 187.836 580.883 188.041C580.79 188.157 580.65 188.216 580.512 188.216Z" fill="#123761"></path><path d="M506.719 163.744C506.479 163.744 506.271 163.565 506.243 163.32C506.21 163.056 506.398 162.817 506.663 162.785C509.731 162.415 512.654 161.23 515.117 159.359C515.329 159.2 515.631 159.241 515.79 159.451C515.95 159.663 515.911 159.965 515.699 160.124C513.1 162.098 510.016 163.346 506.778 163.738C506.759 163.74 506.739 163.742 506.719 163.742V163.744Z" fill="#123761"></path><path d="M500.114 161.106C499.947 161.106 499.788 161.021 499.698 160.868C499.565 160.638 499.641 160.345 499.871 160.21C501.016 159.539 502.074 158.726 503.016 157.788C503.204 157.6 503.508 157.602 503.696 157.788C503.884 157.976 503.882 158.28 503.696 158.468C502.697 159.462 501.574 160.326 500.358 161.038C500.282 161.082 500.199 161.104 500.116 161.104L500.114 161.106Z" fill="#123761"></path><path d="M492.625 157.98C492.509 157.98 492.393 157.939 492.299 157.853C492.105 157.674 492.092 157.37 492.271 157.174L495.018 154.183C495.198 153.989 495.502 153.974 495.698 154.155C495.893 154.334 495.906 154.638 495.727 154.835L492.979 157.825C492.885 157.928 492.754 157.98 492.625 157.98Z" fill="#123761"></path><path d="M486.616 152.78C486.505 152.78 486.393 152.743 486.304 152.664C486.103 152.492 486.078 152.188 486.251 151.987C486.618 151.558 486.9 151.191 487.198 150.8C487.567 150.319 487.947 149.821 488.513 149.18C488.69 148.981 488.992 148.962 489.191 149.139C489.39 149.316 489.407 149.62 489.233 149.816C488.69 150.431 488.319 150.914 487.96 151.384C487.667 151.766 487.364 152.164 486.979 152.612C486.885 152.723 486.749 152.78 486.614 152.78H486.616Z" fill="#123761"></path><path d="M442.276 161.39L363.618 92.8066C363.618 92.8066 351.637 79.4995 343.524 81.9126C333.86 84.7891 350.518 91.4929 351.64 101.412C352.763 111.331 352.387 124.608 352.387 124.608C352.387 124.608 391.185 180.365 421.25 181.016C432.479 181.259 442.271 161.39 442.271 161.39H442.276Z" fill="white"></path><path d="M373.891 151.301C373.736 151.301 373.583 151.224 373.491 151.089C373.292 150.826 370.693 147.821 367.946 144.64C363.806 139.849 358.652 133.884 357.644 132.625C357.478 132.418 357.513 132.116 357.719 131.95C357.926 131.784 358.228 131.816 358.394 132.024C359.391 133.27 364.536 139.226 368.672 144.011C373.712 149.843 374.239 150.463 374.307 150.581C374.438 150.811 374.359 151.106 374.127 151.237C374.053 151.281 373.97 151.301 373.889 151.301H373.891Z" fill="#123761"></path><path d="M339.631 48.848H234.186C223.028 48.848 213.982 57.8933 213.982 69.0513V123.185C213.982 134.343 223.028 143.388 234.186 143.388H339.631C350.788 143.388 359.834 134.343 359.834 123.185V69.0513C359.834 57.8933 350.788 48.848 339.631 48.848Z" fill="#BBDFD8"></path><path d="M339.631 143.867H234.186C222.781 143.867 213.502 134.588 213.502 123.182V69.0491C213.502 57.6437 222.781 48.365 234.186 48.365H339.631C351.036 48.365 360.315 57.6437 360.315 69.0491V123.182C360.315 134.588 351.036 143.867 339.631 143.867ZM234.186 49.3289C223.312 49.3289 214.464 58.177 214.464 69.0513V123.185C214.464 134.059 223.312 142.907 234.186 142.907H339.631C350.505 142.907 359.353 134.059 359.353 123.185V69.0513C359.353 58.177 350.505 49.3289 339.631 49.3289H234.186Z" fill="#123761"></path><path d="M344.883 68.9376H325.231C321.845 68.9376 319.1 71.9103 319.1 75.5759V85.9431C319.1 89.6087 321.845 92.5813 325.231 92.5813H344.883C348.269 92.5813 351.014 89.6087 351.014 85.9431V75.5759C351.014 71.9103 348.269 68.9376 344.883 68.9376Z" fill="#BBDFD8"></path><path d="M344.884 93.0601H325.231C321.585 93.0601 318.619 89.8666 318.619 85.9409V75.5737C318.619 71.648 321.585 68.4546 325.231 68.4546H344.884C348.53 68.4546 351.496 71.648 351.496 75.5737V85.9409C351.496 89.8666 348.53 93.0601 344.884 93.0601ZM325.229 69.4185C322.114 69.4185 319.579 72.1814 319.579 75.5759V85.9431C319.579 89.3377 322.114 92.1005 325.229 92.1005H344.881C347.996 92.1005 350.532 89.3377 350.532 85.9431V75.5759C350.532 72.1814 347.996 69.4185 344.881 69.4185H325.229Z" fill="#123761"></path><path d="M251.222 110.028H222.805V119.329H251.222V110.028Z" fill="#123761"></path><path d="M284.486 110.028H256.068V119.329H284.486V110.028Z" fill="#BBDFD8"></path><path d="M284.967 119.81H255.59V109.547H284.967V119.81ZM256.549 118.848H284.005V110.509H256.549V118.848Z" fill="#123761"></path><path d="M317.749 110.028H289.331V119.329H317.749V110.028Z" fill="#BBDFD8"></path><path d="M318.23 119.81H288.853V109.547H318.23V119.81ZM289.812 118.848H317.268V110.509H289.812V118.848Z" fill="#123761"></path><path d="M351.015 110.028H322.598V119.329H351.015V110.028Z" fill="#BBDFD8"></path><path d="M351.493 119.81H322.114V109.547H351.493V119.81ZM323.078 118.848H350.534V110.509H323.078V118.848Z" fill="#123761"></path><path d="M284.486 130.737H222.805C222.541 130.737 222.324 130.522 222.324 130.256C222.324 129.989 222.538 129.775 222.805 129.775H284.486C284.75 129.775 284.967 129.989 284.967 130.256C284.967 130.522 284.753 130.737 284.486 130.737Z" fill="#123761"></path><path d="M372.042 104.573C371.058 107.69 369.439 110.935 366.678 112.839C363.764 114.85 360.949 113.989 357.834 112.601C355.801 111.696 354.877 109.757 353.675 107.932C353.552 105.331 351.919 103.854 351.642 101.412C350.518 91.4929 333.841 84.7235 343.526 81.9125C351.847 79.4972 363.62 92.8065 363.62 92.8065L372.934 100.927C372.711 102.16 372.42 103.379 372.044 104.57L372.042 104.573Z" fill="white"></path><path d="M363.832 114.798C361.207 114.798 353.093 113.781 351.168 101.486C350.363 96.3519 346.678 92.5924 343.716 89.5716C341.098 86.9006 339.03 84.7891 340.761 83.0055C343.207 80.4853 347.041 80.6317 352.822 83.4645C353.061 83.5803 353.159 83.8689 353.043 84.1071C352.927 84.3454 352.639 84.4437 352.4 84.3279C345.364 80.8809 342.783 82.306 341.452 83.6743C340.425 84.7344 341.83 86.2711 344.405 88.8962C347.301 91.8514 351.266 95.8973 352.121 101.336C354.274 115.064 364.11 113.862 364.527 113.803C364.787 113.768 365.032 113.95 365.069 114.214C365.106 114.477 364.923 114.719 364.658 114.756C364.641 114.758 364.339 114.796 363.834 114.796L363.832 114.798Z" fill="#123761"></path><path d="M408.94 132.807C408.829 132.807 408.715 132.767 408.625 132.689L363.303 93.1694C363.288 93.1541 363.272 93.1388 363.257 93.1235C363.211 93.071 358.588 87.8339 352.374 84.3169C352.142 84.1858 352.062 83.8929 352.193 83.6612C352.324 83.4295 352.617 83.3486 352.848 83.4798C358.984 86.9508 363.596 92.059 363.959 92.4656L409.259 131.965C409.46 132.14 409.48 132.444 409.305 132.643C409.209 132.752 409.076 132.807 408.942 132.807H408.94Z" fill="#123761"></path><path d="M465.213 89.8645L454.726 91.5344C454.726 91.5344 456.459 103.742 463.644 107.193C475.877 113.069 510.566 89.5279 510.566 89.5279L493.443 87.3596C489.742 86.2273 486.87 83.2896 485.818 79.5629L478.868 54.9552L459.532 64.6732L465.213 89.8667V89.8645Z" fill="white"></path><path d="M477.692 48.9836C477.692 48.9836 482.378 41.0601 487.508 42.6601C495.329 45.0972 494.822 59.0885 481.936 58.4131C481.936 58.4131 466.69 77.9125 452.061 72.5005C437.434 67.0885 448.162 34.1136 450.999 28.4612C450.999 28.4612 469.528 30.1464 471.882 37.5978C473.952 44.153 471.086 48.9836 477.692 48.9836Z" fill="white"></path><path d="M457.469 73.9431C455.626 73.9431 453.76 73.6415 451.895 72.9508C448.973 71.8688 446.837 69.6634 445.548 66.3912C440.955 54.7475 448.284 32.8022 450.571 28.2448C450.658 28.0677 450.848 27.9672 451.043 27.9825C451.812 28.0524 469.919 29.7836 472.341 37.4535C473.038 39.659 473.191 41.7049 473.314 43.3508C473.565 46.7038 473.696 48.424 477.425 48.5027C478.289 47.1322 482.682 40.6535 487.653 42.2032C491.447 43.3858 493.747 47.4229 492.999 51.5912C492.33 55.3224 489.124 59.1694 482.16 58.9071C480.649 60.7847 469.62 73.9453 457.469 73.9453V73.9431ZM451.285 28.9726C448.892 34.0349 442.059 54.9224 446.442 66.0393C447.626 69.0448 449.574 71.0666 452.23 72.0502C466.365 77.2808 481.408 58.3104 481.559 58.118C481.655 57.9956 481.803 57.9257 481.963 57.9344C488.485 58.2754 491.449 54.7934 492.055 51.4207C492.616 48.2798 491.165 44.3038 487.368 43.1191C482.662 41.6546 478.153 49.1541 478.109 49.2284C478.022 49.3748 477.865 49.4645 477.696 49.4645C472.813 49.4645 472.612 46.7978 472.359 43.4207C472.232 41.742 472.09 39.8404 471.427 37.742C469.364 31.2087 453.762 29.2437 451.288 28.9726H451.285Z" fill="#123761"></path><path d="M480.415 54.024C480.289 54.024 480.162 53.9737 480.068 53.8732C479.884 53.6808 479.893 53.377 480.085 53.1934C482.101 51.2787 485.045 50.4284 487.769 50.9726C488.029 51.0251 488.197 51.2787 488.147 51.5388C488.094 51.7989 487.843 51.9672 487.581 51.9169C485.161 51.4338 482.54 52.1901 480.748 53.8929C480.654 53.9803 480.536 54.024 480.418 54.024H480.415Z" fill="#123761"></path><path d="M438.804 152.804L460.951 212.63H528.975C529.928 212.63 530.78 213.224 531.11 214.118C531.661 215.609 530.562 217.191 528.975 217.191H394.778C393.115 217.191 391.626 216.155 391.049 214.592L368.957 154.916C368.223 152.931 369.69 150.82 371.805 150.82H435.961C437.231 150.82 438.367 151.611 438.809 152.802L438.804 152.804Z" fill="#123761"></path><path d="M109.843 149.556C116.02 164.098 109.229 180.89 94.6759 187.062C80.1207 193.235 63.3163 186.45 57.1371 171.908C50.96 157.366 57.7513 140.575 72.3043 134.402C86.8595 128.23 103.664 135.014 109.843 149.556Z" fill="#123761"></path><path d="M83.5215 183.788C74.5335 183.788 65.9762 178.514 62.2494 169.74C59.8406 164.07 59.786 157.803 62.0964 152.094C64.4046 146.385 68.8024 141.915 74.4767 139.508C86.1882 134.542 99.7619 140.022 104.735 151.725C107.143 157.395 107.198 163.661 104.888 169.371C102.579 175.08 98.1816 179.55 92.5073 181.956C89.574 183.2 86.5248 183.788 83.5237 183.788H83.5215ZM83.4603 138.811C80.6057 138.811 77.7073 139.371 74.9182 140.553C69.5237 142.842 65.3445 147.091 63.1477 152.518C60.9532 157.948 61.0035 163.904 63.2942 169.294C68.0199 180.42 80.9248 185.631 92.0614 180.907C97.4559 178.619 101.635 174.369 103.832 168.942C106.026 163.515 105.976 157.556 103.685 152.166C100.142 143.825 92.0046 138.811 83.4603 138.811Z" fill="white"></path><path d="M88.3891 175.563L86.8918 172.037C84.8503 172.861 82.4875 173.121 80.894 172.767L80.7388 170.072C82.352 170.376 84.4503 170.269 86.4066 169.44C88.8875 168.389 89.9563 166.247 89.1104 164.258C88.2951 162.339 86.4285 161.729 83.3989 161.779C79.2416 161.895 76.3585 161.222 75.0689 158.186C73.8383 155.29 74.9662 152.216 77.9563 150.33L76.4591 146.804L78.6252 145.886L80.0634 149.272C82.1902 148.452 83.858 148.404 85.1235 148.568L85.2285 151.244C84.317 151.137 82.5574 150.975 80.3235 151.924C77.6328 153.064 77.3028 155.099 77.8951 156.496C78.6667 158.31 80.3432 158.671 83.917 158.638C88.1378 158.579 90.7257 159.622 92.0459 162.73C93.2175 165.489 92.3935 168.885 89.047 171.005L90.588 174.636L88.3869 175.569L88.3891 175.563Z" fill="white"></path><path d="M134.16 131.263C146.808 131.263 157.062 121.018 157.062 108.38C157.062 95.7424 146.808 85.4973 134.16 85.4973C121.511 85.4973 111.257 95.7424 111.257 108.38C111.257 121.018 121.511 131.263 134.16 131.263Z" fill="#123761"></path><path d="M134.142 126.92C132.112 126.92 130.051 126.586 128.029 125.878C123.351 124.243 119.592 120.883 117.441 116.422C115.29 111.961 115.008 106.929 116.645 102.254C120.024 92.6055 130.63 87.5016 140.287 90.8809C144.964 92.5158 148.724 95.8754 150.875 100.337C153.025 104.798 153.307 109.829 151.67 114.505C148.997 122.133 141.808 126.92 134.14 126.92H134.142ZM134.175 90.9355C126.962 90.9355 120.197 95.4382 117.683 102.616C116.142 107.014 116.409 111.746 118.431 115.945C120.453 120.142 123.992 123.303 128.392 124.842C137.478 128.02 147.456 123.22 150.636 114.14C152.177 109.742 151.911 105.01 149.889 100.811C147.867 96.6142 144.328 93.4535 139.926 91.9147C138.024 91.2503 136.083 90.9333 134.173 90.9333L134.175 90.9355Z" fill="white"></path><path d="M129.159 119.585L130.153 116.745C128.531 116.147 127.021 115.049 126.282 114.002L127.618 112.354C128.394 113.384 129.67 114.428 131.246 114.979C133.244 115.679 134.997 114.997 135.559 113.395C136.101 111.849 135.338 110.509 133.552 108.938C131.076 106.809 129.758 104.896 130.614 102.45C131.432 100.118 133.712 98.9268 136.448 99.4099L137.443 96.5706L139.187 97.1804L138.232 99.9061C139.9 100.553 140.896 101.406 141.546 102.168L140.193 103.777C139.72 103.233 138.783 102.212 136.982 101.58C134.816 100.822 133.546 101.832 133.152 102.955C132.641 104.418 133.425 105.513 135.517 107.379C138.002 109.574 138.953 111.548 138.077 114.048C137.299 116.269 135.023 117.808 131.957 117.272L130.931 120.197L129.159 119.576V119.585Z" fill="white"></path><path d="M196.427 104.85C205.68 100.57 209.714 89.6063 205.439 80.361C201.163 71.1157 190.195 67.09 180.942 71.3694C171.689 75.6488 167.655 86.6127 171.931 95.858C176.206 105.103 187.174 109.129 196.427 104.85Z" fill="#123761"></path><path d="M189.672 103.176C186.194 103.176 182.852 101.983 180.133 99.7443C177.029 97.1891 175.11 93.5804 174.723 89.5804C173.928 81.3225 180.002 73.9542 188.264 73.152C192.264 72.7651 196.179 73.9563 199.283 76.5115C202.387 79.0667 204.306 82.6755 204.693 86.6755C205.488 94.9334 199.414 102.302 191.152 103.104C190.658 103.152 190.164 103.176 189.672 103.176ZM189.742 74.1684C189.287 74.1684 188.828 74.1902 188.369 74.2339C180.704 74.9771 175.067 81.8143 175.805 89.4755C176.164 93.1869 177.945 96.5356 180.824 98.905C183.703 101.274 187.333 102.38 191.047 102.022C198.712 101.279 204.35 94.4416 203.611 86.7804C203.252 83.0689 201.471 79.7203 198.592 77.3509C196.07 75.2744 192.97 74.1684 189.744 74.1684H189.742Z" fill="white"></path><path d="M189.84 98.0175L189.609 95.6044C188.221 95.7137 186.743 95.423 185.849 94.9071L186.269 93.2503C187.185 93.7399 188.472 94.0743 189.812 93.9432C191.51 93.7793 192.564 92.6886 192.431 91.3246C192.304 90.011 191.294 89.2875 189.456 88.7432C186.925 88.0241 185.311 87.0711 185.113 84.9924C184.922 83.0099 186.188 81.3662 188.352 80.7957L188.12 78.3825L189.602 78.2383L189.825 80.5552C191.263 80.4634 192.282 80.7519 193.014 81.0907L192.568 82.7257C192.039 82.4875 191.008 82.0569 189.478 82.2055C187.637 82.3847 187.049 83.5498 187.141 84.5071C187.261 85.7487 188.205 86.2864 190.367 86.9443C192.927 87.7093 194.291 88.8306 194.494 90.9574C194.675 92.8459 193.53 94.741 191.108 95.3858L191.349 97.8711L189.843 98.0175H189.84Z" fill="white"></path><path d="M2.7827 201.117C2.76522 201.117 2.74773 201.117 2.72806 201.115C2.46358 201.084 2.27341 200.848 2.30401 200.584C7.91057 150.595 34.4548 101.91 75.1302 67.0121C95.2242 49.7727 117.506 36.8285 141.353 28.5443C166.394 19.8448 191.863 16.776 217.054 19.423C217.318 19.4514 217.508 19.6875 217.482 19.9519C217.454 20.2164 217.22 20.4066 216.953 20.3804C116.875 9.86014 15.021 95.8033 3.2592 200.689C3.23079 200.933 3.02314 201.115 2.7827 201.115V201.117Z" fill="#123761"></path><path d="M210.016 23.8689C209.896 23.6328 209.992 23.3421 210.228 23.2219L216.785 19.8885L210.993 15.3552C210.783 15.1913 210.746 14.8896 210.91 14.6798C211.074 14.4722 211.377 14.435 211.585 14.5967L217.972 19.5956C218.101 19.6962 218.171 19.8579 218.153 20.0219C218.138 20.1858 218.038 20.3301 217.893 20.4044L210.663 24.0787C210.577 24.1202 210.486 24.1377 210.398 24.129C210.241 24.1137 210.092 24.0197 210.016 23.8689Z" fill="#123761"></path><path d="M103.453 75.1099C105.467 57.2118 92.5792 41.0686 74.6678 39.0532C56.7565 37.0378 40.6038 49.9133 38.5899 67.8115C36.576 85.7097 49.4634 101.853 67.3748 103.868C85.2861 105.884 101.439 93.0081 103.453 75.1099Z" fill="white"></path><path d="M71.0479 104.553C69.8195 104.553 68.5801 104.485 67.3298 104.345C58.5386 103.36 50.6588 99.0121 45.1397 92.1028C39.6205 85.1935 37.1222 76.5509 38.108 67.7662C39.0938 58.9815 43.4435 51.1061 50.355 45.5913C57.2664 40.0766 65.9134 37.5804 74.7069 38.5684C83.4981 39.5542 91.3779 43.9017 96.8971 50.811C102.416 57.7203 104.915 66.3629 103.929 75.1476C102.036 92.0329 87.6686 104.553 71.0479 104.553ZM70.9517 39.3203C63.6971 39.3203 56.7091 41.7553 50.9561 46.3433C44.2435 51.6985 40.0205 59.3443 39.0654 67.8733C38.108 76.4023 40.5342 84.7935 45.8938 91.5017C51.2533 98.2099 58.9058 102.431 67.4413 103.388C68.6544 103.524 69.8588 103.589 71.0501 103.591C87.1878 103.591 101.137 91.4361 102.976 75.0405C103.933 66.5116 101.507 58.1203 96.1473 51.4121C90.7878 44.7039 83.1353 40.4832 74.5998 39.5258C73.3801 39.3881 72.1604 39.3203 70.9517 39.3203Z" fill="#123761"></path><path d="M54.9605 84.4175C54.8184 84.4175 54.6785 84.3563 54.5845 84.2361C54.4184 84.0284 54.4534 83.7268 54.661 83.5607L85.6621 58.8088C85.8698 58.6426 86.1714 58.6776 86.3375 58.8853C86.5036 59.0929 86.4687 59.3945 86.261 59.5607L55.2599 84.3126C55.1703 84.3825 55.0654 84.4175 54.9605 84.4175Z" fill="#123761"></path><path d="M63.2405 64.4809C63.0744 64.4809 62.9061 64.4721 62.7356 64.4524C61.5312 64.3191 60.4493 63.7246 59.693 62.7781C58.9367 61.8339 58.5957 60.6513 58.7312 59.4492C59.0088 56.9661 61.258 55.1716 63.7433 55.447C64.9476 55.5803 66.0274 56.1748 66.7837 57.1191C67.54 58.0634 67.8831 59.2481 67.7476 60.4502C67.4875 62.7628 65.5181 64.4809 63.2405 64.4809ZM63.2383 56.3803C61.4416 56.3803 59.8897 57.7333 59.6842 59.5563C59.5793 60.5027 59.8482 61.4339 60.4427 62.177C61.0394 62.9224 61.8897 63.3901 62.8405 63.4951C64.8012 63.7158 66.5717 62.2972 66.7924 60.341C66.8974 59.3945 66.6285 58.4612 66.0318 57.718C65.4351 56.9727 64.5848 56.5049 63.6362 56.4C63.5028 56.3847 63.3695 56.3781 63.2383 56.3781V56.3803Z" fill="#123761"></path><path d="M79.1767 87.8688C79.0106 87.8688 78.8423 87.8601 78.674 87.8404C77.4696 87.7071 76.3898 87.1125 75.6335 86.1683C74.8772 85.224 74.5341 84.0393 74.6696 82.8371C74.9472 80.3541 77.1986 78.5573 79.6816 78.8349C80.886 78.9683 81.9658 79.5628 82.7221 80.5071C83.4783 81.4513 83.8215 82.636 83.686 83.8382C83.4259 86.1508 81.4565 87.8688 79.1767 87.8688ZM78.7789 86.8852C80.7439 87.1038 82.51 85.6874 82.7308 83.7311C82.8357 82.7847 82.5669 81.8513 81.9701 81.1082C81.3734 80.3628 80.5231 79.895 79.5745 79.7901C77.6182 79.5694 75.8434 80.9879 75.6226 82.9442C75.5177 83.8907 75.7865 84.824 76.3833 85.5672C76.98 86.3125 77.8302 86.7803 78.7789 86.8852Z" fill="#123761"></path><path d="M489.137 296.184C488.872 296.184 488.656 295.969 488.656 295.703V256.352C488.656 245.071 479.452 235.891 468.138 235.891C456.824 235.891 447.62 245.069 447.62 256.352V295.703C447.62 295.967 447.406 296.184 447.139 296.184C446.872 296.184 446.658 295.969 446.658 295.703V256.352C446.658 244.54 456.293 234.931 468.138 234.931C479.983 234.931 489.618 244.54 489.618 256.352V295.703C489.618 295.967 489.404 296.184 489.137 296.184Z" fill="#123761"></path><path d="M405.449 399.408H510.675L501.233 273.609H414.892L405.449 399.408Z" fill="#BBDFD8"></path><path d="M510.676 399.888H405.447C405.314 399.888 405.185 399.834 405.095 399.735C405.003 399.637 404.957 399.506 404.968 399.373L414.413 273.574C414.433 273.322 414.641 273.128 414.892 273.128H501.231C501.482 273.128 501.692 273.322 501.709 273.574L511.154 399.373C511.165 399.506 511.119 399.637 511.027 399.735C510.936 399.834 510.809 399.888 510.676 399.888ZM405.967 398.927H510.157L500.785 274.09H415.338L405.965 398.927H405.967Z" fill="#123761"></path><path d="M433.781 399.408H539.007L529.565 273.609H443.224L433.781 399.408Z" fill="#BBDFD8"></path><path d="M539.008 399.888H433.779C433.646 399.888 433.517 399.834 433.427 399.735C433.335 399.637 433.289 399.506 433.3 399.373L442.745 273.574C442.765 273.322 442.973 273.128 443.224 273.128H529.563C529.814 273.128 530.024 273.322 530.041 273.574L539.486 399.373C539.497 399.506 539.451 399.637 539.359 399.735C539.268 399.834 539.141 399.888 539.008 399.888ZM434.299 398.927H538.49L529.117 274.09H443.67L434.297 398.927H434.299Z" fill="#123761"></path><path d="M508.334 289.467C508.07 289.467 507.853 289.252 507.853 288.986V256.352C507.853 245.071 498.649 235.891 487.335 235.891C476.022 235.891 466.817 245.069 466.817 256.352V288.986C466.817 289.25 466.603 289.467 466.336 289.467C466.07 289.467 465.855 289.252 465.855 288.986V256.352C465.855 244.54 475.49 234.931 487.335 234.931C499.18 234.931 508.815 244.54 508.815 256.352V288.986C508.815 289.25 508.601 289.467 508.334 289.467Z" fill="#123761"></path><path d="M534.284 329.176C534.02 329.176 533.803 328.962 533.803 328.695V304.19C533.803 297.266 528.505 291.631 521.993 291.631C515.482 291.631 510.183 297.266 510.183 304.19V328.695C510.183 328.96 509.969 329.176 509.703 329.176C509.436 329.176 509.222 328.962 509.222 328.695V304.19C509.222 296.734 514.951 290.669 521.993 290.669C529.036 290.669 534.765 296.734 534.765 304.19V328.695C534.765 328.96 534.551 329.176 534.284 329.176Z" fill="#123761"></path><path d="M491.095 399.408H552.684L547.156 320.288H496.623L491.095 399.408Z" fill="#BBDFD8"></path><path d="M552.684 399.888H491.095C490.962 399.888 490.835 399.834 490.743 399.735C490.651 399.637 490.606 399.508 490.614 399.375L496.142 320.256C496.16 320.004 496.37 319.808 496.621 319.808H547.154C547.408 319.808 547.615 320.002 547.633 320.256L553.161 399.375C553.17 399.508 553.124 399.639 553.032 399.735C552.94 399.834 552.813 399.888 552.68 399.888H552.684ZM491.611 398.927H552.168L546.708 320.769H497.071L491.611 398.927Z" fill="#123761"></path><path d="M507.679 399.408H569.268L563.74 319.521H513.207L507.679 399.408Z" fill="#BBDFD8"></path><path d="M569.268 399.888H507.679C507.546 399.888 507.419 399.834 507.327 399.736C507.235 399.637 507.19 399.508 507.198 399.375L512.726 319.489C512.744 319.237 512.954 319.04 513.205 319.04H563.738C563.992 319.04 564.199 319.235 564.217 319.489L569.745 399.375C569.754 399.508 569.708 399.639 569.616 399.736C569.524 399.834 569.397 399.888 569.264 399.888H569.268ZM508.193 398.927H568.752L563.292 320.002H513.655L508.195 398.927H508.193Z" fill="#123761"></path><path d="M499.181 391.941C499.168 391.941 499.155 391.941 499.141 391.941C498.877 391.919 498.678 391.687 498.7 391.423L503.563 329.805C503.585 329.541 503.817 329.346 504.081 329.364C504.346 329.386 504.545 329.617 504.523 329.882L499.659 391.499C499.64 391.751 499.43 391.943 499.181 391.943V391.941Z" fill="#123761"></path><path d="M551.314 329.176C551.05 329.176 550.833 328.962 550.833 328.695V304.19C550.833 297.266 545.535 291.631 539.024 291.631C532.512 291.631 527.214 297.266 527.214 304.19V328.695C527.214 328.96 526.999 329.176 526.733 329.176C526.466 329.176 526.252 328.962 526.252 328.695V304.19C526.252 296.734 531.981 290.669 539.024 290.669C546.066 290.669 551.795 296.734 551.795 304.19V328.695C551.795 328.96 551.581 329.176 551.314 329.176Z" fill="#123761"></path><path d="M585.627 399.889H486.267C486.003 399.889 485.786 399.674 485.786 399.408C485.786 399.141 486 398.927 486.267 398.927H585.627C585.891 398.927 586.107 399.141 586.107 399.408C586.107 399.674 585.893 399.889 585.627 399.889Z" fill="#123761"></path><path d="M382.323 279.912H322.463C322.199 279.912 321.982 279.698 321.982 279.432V156.004C321.982 155.74 322.197 155.523 322.463 155.523C322.73 155.523 322.944 155.738 322.944 156.004V278.951H382.323C382.588 278.951 382.804 279.165 382.804 279.432C382.804 279.698 382.59 279.912 382.323 279.912Z" fill="#123761"></path><path d="M599.039 333.965H572.258C571.994 333.965 571.777 333.751 571.777 333.484C571.777 333.217 571.992 333.003 572.258 333.003H598.558V226.835C598.558 226.57 598.772 226.354 599.039 226.354C599.305 226.354 599.519 226.568 599.519 226.835V333.482C599.519 333.746 599.305 333.963 599.039 333.963V333.965Z" fill="#123761"></path><path d="M414.428 300.238C427.147 300.238 437.457 289.928 437.457 277.209C437.457 264.49 427.147 254.179 414.428 254.179C401.709 254.179 391.398 264.49 391.398 277.209C391.398 289.928 401.709 300.238 414.428 300.238Z" fill="#123761"></path><path d="M413.068 288.354C412.876 288.354 412.69 288.278 412.552 288.138L403.51 278.92C403.23 278.636 403.234 278.179 403.521 277.899C403.805 277.622 404.262 277.624 404.541 277.91L412.983 286.514L424.244 270.807C424.476 270.483 424.926 270.409 425.249 270.64C425.573 270.872 425.647 271.322 425.416 271.646L413.656 288.05C413.531 288.223 413.337 288.332 413.125 288.35C413.107 288.35 413.088 288.35 413.07 288.35L413.068 288.354Z" fill="white"></path></g><defs><clipPath id="clip0_313_2808"><rect width="599.519" height="400" fill="white"></rect></clipPath></defs></svg>