<?xml version="1.0" encoding="UTF-8"?>
<svg xmlns="http://www.w3.org/2000/svg" xmlns:xlink="http://www.w3.org/1999/xlink" width="900px" height="900px" viewBox="0 0 900 900" version="1.1">
<g id="surface1">
<path style=" stroke:none;fill-rule:nonzero;fill:rgb(40.784314%,66.666669%,93.725491%);fill-opacity:1;" d="M 808.199219 450 C 808.199219 647.828125 647.828125 808.199219 450 808.199219 C 252.171875 808.199219 91.800781 647.828125 91.800781 450 C 91.800781 252.171875 252.171875 91.800781 450 91.800781 C 647.828125 91.800781 808.199219 252.171875 808.199219 450 Z M 808.199219 450 "/>
<path style=" stroke:none;fill-rule:nonzero;fill:rgb(100%,74.901962%,40.000001%);fill-opacity:1;" d="M 759.871094 450 C 759.871094 621.136719 621.136719 759.871094 450 759.871094 C 278.863281 759.871094 140.128906 621.136719 140.128906 450 C 140.128906 278.863281 278.863281 140.128906 450 140.128906 C 621.136719 140.128906 759.871094 278.863281 759.871094 450 Z M 759.871094 450 "/>
<path style=" stroke:none;fill-rule:nonzero;fill:rgb(40.784314%,66.666669%,93.725491%);fill-opacity:1;" d="M 691.109375 423.269531 C 689.941406 387.988281 675.269531 356.128906 652.050781 332.730469 C 651.960938 332.640625 651.871094 332.550781 651.78125 332.460938 C 651.597656 332.28125 651.511719 332.191406 651.332031 332.011719 C 650.519531 331.289062 649.800781 330.480469 648.988281 329.761719 C 648.902344 329.667969 648.71875 329.488281 648.628906 329.402344 C 625.5 307.800781 594.808594 294.210938 560.972656 293.128906 C 560.878906 293.128906 560.789062 293.128906 560.699219 293.128906 C 559.347656 293.128906 558 293.039062 556.558594 293.039062 C 555.210938 293.039062 553.769531 293.039062 552.417969 293.128906 C 552.332031 293.128906 552.238281 293.128906 552.152344 293.128906 C 518.582031 294.210938 488.160156 307.53125 465.121094 328.859375 C 458.550781 315.179688 449.730469 302.847656 439.199219 292.140625 C 439.109375 292.050781 439.019531 291.960938 438.929688 291.871094 C 438.75 291.691406 438.660156 291.597656 438.480469 291.417969 C 437.667969 290.699219 436.949219 289.890625 436.140625 289.167969 C 436.050781 289.082031 435.871094 288.902344 435.78125 288.808594 C 412.652344 267.210938 381.960938 253.621094 348.121094 252.539062 C 348.03125 252.539062 347.941406 252.539062 347.847656 252.539062 C 346.5 252.539062 345.152344 252.449219 343.710938 252.449219 C 342.359375 252.449219 340.917969 252.449219 339.570312 252.539062 C 339.480469 252.539062 339.390625 252.539062 339.300781 252.539062 C 305.460938 253.621094 274.679688 267.210938 251.640625 288.808594 C 251.550781 288.902344 251.371094 289.082031 251.28125 289.167969 C 250.46875 289.890625 249.75 290.699219 248.941406 291.417969 C 248.761719 291.597656 248.667969 291.691406 248.488281 291.871094 C 248.402344 291.960938 248.308594 292.050781 248.21875 292.140625 C 225 315.539062 210.238281 347.402344 209.164062 382.679688 C 209.070312 384.121094 209.070312 385.652344 209.070312 387.085938 C 209.070312 388.53125 209.070312 390.058594 209.164062 391.5 C 210.332031 426.78125 225 458.640625 248.21875 482.039062 C 248.308594 482.128906 248.402344 482.222656 248.488281 482.308594 C 248.667969 482.488281 248.761719 482.582031 248.941406 482.761719 C 249.75 483.480469 250.46875 484.289062 251.28125 485.011719 C 251.371094 485.097656 251.550781 485.28125 251.640625 485.371094 C 272.25 504.722656 299.070312 517.585938 328.679688 520.917969 C 321.300781 536.847656 316.980469 554.488281 316.347656 573.03125 C 316.261719 574.472656 316.261719 576 316.261719 577.441406 C 316.261719 578.878906 316.261719 580.414062 316.347656 581.847656 C 317.429688 615.691406 331.019531 646.46875 352.621094 669.511719 C 352.621094 669.511719 352.710938 669.597656 352.710938 669.597656 C 353.335938 670.320312 354.058594 671.039062 354.78125 671.761719 C 355.050781 672.03125 355.320312 672.300781 355.679688 672.664062 C 355.679688 672.664062 355.769531 672.75 355.769531 672.75 C 356.847656 673.832031 357.835938 674.820312 358.917969 675.808594 C 381.511719 696.960938 411.300781 710.460938 444.332031 712.082031 C 445.050781 712.082031 445.859375 712.167969 446.582031 712.167969 C 446.761719 712.167969 447.03125 712.167969 447.210938 712.167969 C 447.210938 712.167969 447.210938 712.167969 447.121094 712.167969 C 447.570312 712.167969 448.019531 712.167969 448.472656 712.167969 C 448.472656 712.167969 448.558594 712.167969 448.558594 712.167969 C 448.652344 712.167969 448.738281 712.167969 448.832031 712.167969 L 449.191406 712.167969 C 449.820312 712.167969 450.359375 712.167969 450.988281 712.167969 C 451.621094 712.167969 452.160156 712.167969 452.789062 712.167969 L 453.238281 712.167969 C 453.417969 712.167969 453.597656 712.167969 453.78125 712.167969 C 453.960938 712.167969 454.140625 712.167969 454.320312 712.167969 C 454.5 712.167969 454.679688 712.167969 454.859375 712.167969 C 455.039062 712.167969 455.222656 712.167969 455.402344 712.167969 C 456.121094 712.167969 456.929688 712.167969 457.652344 712.082031 C 490.585938 710.460938 520.472656 697.050781 543.058594 675.808594 C 544.140625 674.820312 545.222656 673.738281 546.210938 672.75 L 546.570312 672.390625 C 546.835938 672.121094 547.109375 671.847656 547.378906 671.582031 C 548.011719 670.949219 548.640625 670.320312 549.179688 669.691406 C 549.179688 669.691406 549.269531 669.597656 549.269531 669.597656 C 570.871094 646.46875 584.460938 615.78125 585.539062 581.941406 C 585.539062 580.769531 585.628906 579.691406 585.628906 578.519531 C 585.628906 578.164062 585.628906 577.890625 585.628906 577.53125 C 585.628906 577.261719 585.628906 576.988281 585.628906 576.71875 C 585.628906 575.550781 585.628906 574.289062 585.539062 573.121094 C 585.539062 572.222656 585.449219 571.320312 585.449219 570.417969 C 585.269531 566.730469 584.914062 563.128906 584.460938 559.621094 C 608.941406 554.488281 631.082031 542.609375 648.628906 526.140625 C 648.71875 526.050781 648.902344 525.871094 648.988281 525.78125 C 649.800781 525.058594 650.519531 524.25 651.332031 523.53125 C 651.511719 523.347656 651.597656 523.261719 651.78125 523.082031 C 651.871094 522.988281 651.960938 522.902344 652.050781 522.808594 C 675.269531 499.410156 690.03125 467.550781 691.109375 432.269531 C 691.199219 430.832031 691.199219 429.300781 691.199219 427.859375 C 691.199219 426.152344 691.199219 424.710938 691.109375 423.269531 Z M 691.109375 423.269531 "/>
<path style=" stroke:none;fill-rule:nonzero;fill:rgb(26.274511%,86.666667%,90.196079%);fill-opacity:1;" d="M 478.261719 369 C 478.261719 370.441406 478.261719 371.972656 478.167969 373.410156 C 475.832031 445.769531 416.429688 503.730469 343.53125 503.730469 C 270.628906 503.730469 211.230469 445.769531 208.890625 373.410156 C 208.800781 371.972656 208.800781 370.441406 208.800781 369 C 208.800781 367.558594 208.800781 366.03125 208.890625 364.585938 C 211.230469 292.230469 270.628906 234.269531 343.53125 234.269531 C 416.429688 234.269531 475.832031 292.230469 478.167969 364.585938 C 478.261719 366.03125 478.261719 367.558594 478.261719 369 Z M 478.261719 369 "/>
<path style=" stroke:none;fill-rule:nonzero;fill:rgb(7.450981%,33.333334%,62.7451%);fill-opacity:1;" d="M 476.371094 370.890625 C 476.371094 372.332031 476.371094 373.769531 476.28125 375.210938 C 474.03125 446.582031 415.441406 503.640625 343.53125 503.640625 C 271.621094 503.640625 213.121094 446.488281 210.78125 375.210938 C 210.691406 373.769531 210.691406 372.332031 210.691406 370.890625 C 210.691406 369.449219 210.691406 368.011719 210.78125 366.570312 C 213.03125 295.199219 271.621094 238.140625 343.53125 238.140625 C 415.441406 238.140625 473.941406 295.289062 476.28125 366.570312 C 476.28125 368.011719 476.371094 369.449219 476.371094 370.890625 Z M 476.371094 370.890625 "/>
<path style=" stroke:none;fill-rule:nonzero;fill:rgb(0%,81.960785%,86.666667%);fill-opacity:1;" d="M 478.261719 369 C 478.261719 370.441406 478.261719 371.972656 478.167969 373.410156 L 208.890625 373.410156 C 208.800781 371.972656 208.800781 370.441406 208.800781 369 C 208.800781 367.558594 208.800781 366.03125 208.890625 364.585938 L 478.167969 364.585938 C 478.261719 366.03125 478.261719 367.558594 478.261719 369 Z M 478.261719 369 "/>
<path style=" stroke:none;fill-rule:nonzero;fill:rgb(10.980392%,85.09804%,89.411765%);fill-opacity:1;" d="M 478.167969 364.585938 L 476.191406 364.585938 C 476.191406 365.222656 476.28125 365.941406 476.28125 366.570312 C 476.371094 368.011719 476.371094 369.449219 476.371094 370.890625 C 476.371094 371.699219 476.371094 372.511719 476.371094 373.410156 L 478.261719 373.410156 C 478.347656 371.972656 478.347656 370.441406 478.347656 369 C 478.261719 367.558594 478.261719 366.03125 478.167969 364.585938 Z M 210.691406 370.890625 C 210.691406 369.449219 210.691406 368.011719 210.78125 366.570312 C 210.78125 365.941406 210.871094 365.222656 210.871094 364.585938 L 208.890625 364.585938 C 208.800781 366.03125 208.800781 367.558594 208.800781 369 C 208.800781 370.441406 208.800781 371.972656 208.890625 373.410156 L 210.78125 373.410156 C 210.78125 372.597656 210.691406 371.789062 210.691406 370.890625 Z M 210.691406 370.890625 "/>
<path style=" stroke:none;fill-rule:nonzero;fill:rgb(0%,81.960785%,86.666667%);fill-opacity:1;" d="M 343.53125 234.269531 C 344.972656 234.269531 346.5 234.269531 347.941406 234.359375 L 347.941406 503.640625 C 346.5 503.730469 344.972656 503.730469 343.53125 503.730469 C 342.085938 503.730469 340.558594 503.730469 339.121094 503.640625 L 339.121094 234.359375 C 340.558594 234.269531 342.085938 234.269531 343.53125 234.269531 Z M 343.53125 234.269531 "/>
<path style=" stroke:none;fill-rule:nonzero;fill:rgb(10.980392%,85.09804%,89.411765%);fill-opacity:1;" d="M 339.121094 503.640625 C 339.300781 503.640625 339.570312 503.640625 339.75 503.640625 C 339.570312 503.640625 339.300781 503.640625 339.121094 503.640625 Z M 343.53125 238.140625 C 344.972656 238.140625 346.5 238.140625 347.941406 238.230469 L 347.941406 234.359375 C 346.5 234.269531 344.972656 234.269531 343.53125 234.269531 C 342.085938 234.269531 340.558594 234.269531 339.121094 234.359375 L 339.121094 238.230469 C 340.558594 238.140625 342.085938 238.140625 343.53125 238.140625 Z M 343.53125 503.730469 C 344.519531 503.730469 345.511719 503.730469 346.5 503.730469 C 345.511719 503.730469 344.519531 503.730469 343.53125 503.730469 Z M 347.308594 503.640625 C 347.488281 503.640625 347.761719 503.640625 347.941406 503.640625 C 347.761719 503.640625 347.488281 503.640625 347.308594 503.640625 Z M 343.53125 503.730469 C 342.539062 503.730469 341.550781 503.730469 340.558594 503.730469 C 341.550781 503.730469 342.539062 503.730469 343.53125 503.730469 Z M 343.53125 503.730469 "/>
<path style=" stroke:none;fill-rule:nonzero;fill:rgb(0%,81.960785%,86.666667%);fill-opacity:1;" d="M 438.835938 464.222656 C 437.761719 465.300781 436.769531 466.289062 435.691406 467.28125 L 245.164062 276.929688 C 246.152344 275.847656 247.230469 274.769531 248.21875 273.78125 C 249.300781 272.699219 250.289062 271.710938 251.371094 270.71875 L 441.902344 461.070312 C 440.910156 462.152344 439.832031 463.230469 438.835938 464.222656 Z M 438.835938 464.222656 "/>
<path style=" stroke:none;fill-rule:nonzero;fill:rgb(10.980392%,85.09804%,89.411765%);fill-opacity:1;" d="M 435.238281 466.917969 L 435.597656 467.28125 C 436.679688 466.289062 437.761719 465.210938 438.75 464.222656 C 439.738281 463.230469 440.820312 462.152344 441.808594 461.070312 L 441.359375 460.621094 C 439.472656 462.78125 437.402344 464.941406 435.238281 466.917969 Z M 253.800781 273.058594 L 251.460938 270.71875 C 250.378906 271.710938 249.300781 272.789062 248.308594 273.78125 C 247.230469 274.859375 246.238281 275.847656 245.25 276.929688 L 247.585938 279.269531 C 249.570312 277.109375 251.640625 275.039062 253.800781 273.058594 Z M 253.800781 273.058594 "/>
<path style=" stroke:none;fill-rule:nonzero;fill:rgb(0%,81.960785%,86.666667%);fill-opacity:1;" d="M 438.835938 273.691406 C 439.917969 274.769531 440.910156 275.761719 441.902344 276.835938 L 251.460938 467.371094 C 250.378906 466.378906 249.300781 465.300781 248.308594 464.308594 C 247.230469 463.230469 246.238281 462.238281 245.25 461.160156 L 435.597656 270.628906 C 436.679688 271.621094 437.761719 272.699219 438.835938 273.691406 Z M 438.835938 273.691406 "/>
<path style=" stroke:none;fill-rule:nonzero;fill:rgb(10.980392%,85.09804%,89.411765%);fill-opacity:1;" d="M 439.558594 279.179688 L 441.902344 276.835938 C 440.910156 275.761719 439.832031 274.679688 438.835938 273.691406 C 437.761719 272.609375 436.769531 271.621094 435.691406 270.628906 L 433.347656 272.96875 C 435.417969 275.039062 437.488281 277.109375 439.558594 279.179688 Z M 245.609375 460.621094 L 245.164062 461.070312 C 246.152344 462.152344 247.230469 463.230469 248.21875 464.222656 C 249.210938 465.210938 250.289062 466.289062 251.371094 467.28125 L 251.730469 466.917969 C 249.664062 464.941406 247.585938 462.78125 245.609375 460.621094 Z M 245.609375 460.621094 "/>
<path style=" stroke:none;fill-rule:nonzero;fill:rgb(26.274511%,86.666667%,90.196079%);fill-opacity:1;" d="M 449.191406 369 C 449.191406 427.355469 401.882812 474.660156 343.53125 474.660156 C 285.175781 474.660156 237.871094 427.355469 237.871094 369 C 237.871094 310.644531 285.175781 263.335938 343.53125 263.335938 C 401.882812 263.335938 449.191406 310.644531 449.191406 369 Z M 449.191406 369 "/>
<path style=" stroke:none;fill-rule:nonzero;fill:rgb(10.980392%,85.09804%,89.411765%);fill-opacity:1;" d="M 438.835938 369 C 438.835938 421.636719 396.167969 464.308594 343.53125 464.308594 C 290.890625 464.308594 248.21875 421.636719 248.21875 369 C 248.21875 316.363281 290.890625 273.691406 343.53125 273.691406 C 396.167969 273.691406 438.835938 316.363281 438.835938 369 Z M 438.835938 369 "/>
<path style=" stroke:none;fill-rule:nonzero;fill:rgb(7.450981%,33.333334%,62.7451%);fill-opacity:1;" d="M 332.640625 417.78125 L 339.210938 386.730469 L 372.238281 364.050781 L 377.371094 338.582031 L 344.335938 361.347656 L 355.140625 313.019531 L 329.761719 313.019531 L 314.730469 381.691406 L 300.871094 391.230469 L 296.28125 416.070312 L 309.597656 406.980469 L 302.761719 439.558594 L 395.097656 439.558594 L 399.597656 417.78125 Z M 332.640625 417.78125 "/>
<path style=" stroke:none;fill-rule:nonzero;fill:rgb(94.117647%,94.117647%,94.117647%);fill-opacity:1;" d="M 332.640625 406.710938 L 339.210938 375.660156 L 372.238281 352.980469 L 377.371094 327.511719 L 344.335938 350.28125 L 355.140625 302.039062 L 329.761719 302.039062 L 314.730469 370.621094 L 300.871094 380.25 L 296.28125 405 L 309.597656 395.910156 L 302.761719 428.488281 L 395.097656 428.488281 L 399.597656 406.710938 Z M 332.640625 406.710938 "/>
<path style=" stroke:none;fill-rule:nonzero;fill:rgb(82.352942%,82.352942%,82.352942%);fill-opacity:1;" d="M 395.097656 421.109375 L 304.289062 421.109375 L 302.761719 428.488281 L 395.097656 428.488281 L 399.597656 406.710938 L 398.070312 406.710938 Z M 395.097656 421.109375 "/>
<path style=" stroke:none;fill-rule:nonzero;fill:rgb(82.352942%,82.352942%,82.352942%);fill-opacity:1;" d="M 372.238281 352.980469 L 377.371094 327.511719 L 375.660156 328.769531 L 372.238281 345.597656 L 339.210938 368.191406 L 331.109375 406.710938 L 332.640625 406.710938 L 339.210938 375.660156 Z M 372.238281 352.980469 "/>
<path style=" stroke:none;fill-rule:nonzero;fill:rgb(82.352942%,82.352942%,82.352942%);fill-opacity:1;" d="M 344.335938 350.28125 L 355.140625 302.039062 L 353.429688 302.039062 L 342.449219 351.628906 Z M 344.335938 350.28125 "/>
<path style=" stroke:none;fill-rule:nonzero;fill:rgb(82.352942%,82.352942%,82.352942%);fill-opacity:1;" d="M 311.402344 387.269531 L 297.902344 396.539062 L 296.28125 405 L 309.597656 395.910156 Z M 311.402344 387.269531 "/>
<path style=" stroke:none;fill-rule:nonzero;fill:rgb(94.117647%,43.137255%,58.823532%);fill-opacity:1;" d="M 585.539062 559.441406 C 585.539062 560.878906 585.539062 562.410156 585.449219 563.847656 C 584.371094 597.691406 570.78125 628.46875 549.179688 651.511719 C 549.179688 651.511719 549.085938 651.597656 549.085938 651.597656 C 548.460938 652.230469 547.917969 652.859375 547.289062 653.488281 C 547.019531 653.761719 546.75 654.03125 546.480469 654.300781 L 546.121094 654.664062 C 545.039062 655.738281 544.050781 656.730469 542.972656 657.71875 C 520.378906 678.871094 490.585938 692.371094 457.558594 693.988281 C 456.835938 693.988281 456.03125 694.082031 455.308594 694.082031 L 455.128906 694.082031 C 455.039062 694.082031 454.949219 694.082031 454.859375 694.082031 C 454.679688 694.082031 454.5 694.082031 454.230469 694.082031 C 454.050781 694.082031 453.871094 694.082031 453.691406 694.082031 C 453.597656 694.082031 453.511719 694.082031 453.332031 694.082031 L 453.238281 694.082031 C 453.058594 694.082031 452.878906 694.082031 452.699219 694.082031 C 452.070312 694.082031 451.53125 694.082031 450.902344 694.082031 C 450.269531 694.082031 449.730469 694.082031 449.097656 694.082031 C 448.917969 694.082031 448.738281 694.082031 448.558594 694.082031 L 448.472656 694.082031 C 448.289062 694.082031 448.109375 694.082031 447.929688 694.082031 C 447.570312 694.082031 447.300781 694.082031 446.941406 694.082031 C 446.847656 694.082031 446.761719 694.082031 446.667969 694.082031 L 446.402344 694.082031 C 445.679688 694.082031 444.871094 694.082031 444.152344 693.988281 C 411.210938 692.371094 381.332031 678.960938 358.738281 657.71875 C 357.660156 656.730469 356.582031 655.738281 355.585938 654.664062 C 355.320312 654.390625 354.960938 654.03125 354.691406 653.761719 C 353.972656 653.039062 353.335938 652.320312 352.621094 651.597656 C 352.621094 651.597656 352.53125 651.511719 352.53125 651.511719 C 330.929688 628.378906 317.335938 597.691406 316.261719 563.847656 C 316.167969 562.410156 316.167969 560.878906 316.167969 559.441406 C 316.167969 558 316.167969 556.472656 316.261719 555.03125 C 317.335938 521.191406 330.929688 490.410156 352.53125 467.371094 C 352.53125 467.371094 352.621094 467.28125 352.621094 467.28125 C 353.335938 466.472656 354.058594 465.75 354.78125 465.03125 C 356.039062 463.679688 357.390625 462.417969 358.738281 461.160156 C 376.109375 444.871094 397.800781 433.167969 421.917969 427.859375 C 429.835938 426.152344 438.03125 425.070312 446.402344 424.800781 C 446.761719 424.800781 447.03125 424.800781 447.390625 424.800781 C 448.558594 424.800781 449.640625 424.800781 450.808594 424.800781 C 451.980469 424.800781 453.058594 424.800781 454.230469 424.800781 C 454.585938 424.800781 454.859375 424.800781 455.222656 424.800781 C 489.058594 425.878906 519.835938 439.472656 542.878906 461.160156 C 544.140625 462.332031 545.402344 463.585938 546.660156 464.847656 C 546.835938 465.03125 546.929688 465.121094 547.109375 465.300781 C 547.738281 465.929688 548.371094 466.652344 549.085938 467.371094 C 549.085938 467.371094 549.179688 467.460938 549.179688 467.460938 C 570.238281 489.960938 583.652344 519.660156 585.359375 552.511719 C 585.449219 553.410156 585.449219 554.308594 585.449219 555.210938 C 585.539062 556.472656 585.539062 557.910156 585.539062 559.441406 Z M 585.539062 559.441406 "/>
<path style=" stroke:none;fill-rule:nonzero;fill:rgb(65.490198%,16.078432%,30.980393%);fill-opacity:1;" d="M 583.652344 561.332031 C 583.652344 562.769531 583.652344 564.210938 583.558594 565.652344 C 581.308594 637.019531 522.722656 694.082031 450.808594 694.082031 C 378.902344 694.082031 320.402344 636.929688 318.058594 565.652344 C 317.972656 564.210938 317.972656 562.769531 317.972656 561.332031 C 317.972656 559.890625 317.972656 558.449219 318.058594 557.011719 C 320.308594 485.640625 378.902344 428.582031 450.808594 428.582031 C 522.722656 428.582031 581.21875 485.730469 583.558594 557.011719 C 583.558594 558.449219 583.652344 559.890625 583.652344 561.332031 Z M 583.652344 561.332031 "/>
<path style=" stroke:none;fill-rule:nonzero;fill:rgb(89.411765%,23.921569%,43.921569%);fill-opacity:1;" d="M 585.539062 559.441406 C 585.539062 560.878906 585.539062 562.410156 585.449219 563.847656 L 316.167969 563.847656 C 316.082031 562.410156 316.082031 560.878906 316.082031 559.441406 C 316.082031 558 316.082031 556.472656 316.167969 555.03125 L 585.449219 555.03125 C 585.539062 556.472656 585.539062 557.910156 585.539062 559.441406 Z M 585.539062 559.441406 "/>
<path style=" stroke:none;fill-rule:nonzero;fill:rgb(98.823529%,31.764707%,52.156866%);fill-opacity:1;" d="M 585.449219 554.941406 L 583.46875 554.941406 C 583.46875 555.570312 583.558594 556.289062 583.558594 556.917969 C 583.652344 558.359375 583.652344 559.800781 583.652344 561.238281 C 583.652344 562.050781 583.652344 562.859375 583.652344 563.761719 L 585.539062 563.761719 C 585.628906 562.320312 585.628906 560.789062 585.628906 559.347656 C 585.539062 557.910156 585.539062 556.472656 585.449219 554.941406 Z M 318.058594 561.332031 C 318.058594 559.890625 318.058594 558.449219 318.152344 557.011719 C 318.152344 556.378906 318.238281 555.660156 318.238281 555.03125 L 316.261719 555.03125 C 316.167969 556.472656 316.167969 558 316.167969 559.441406 C 316.167969 560.878906 316.167969 562.410156 316.261719 563.847656 L 318.152344 563.847656 C 318.058594 562.949219 318.058594 562.140625 318.058594 561.332031 Z M 318.058594 561.332031 "/>
<path style=" stroke:none;fill-rule:nonzero;fill:rgb(89.411765%,23.921569%,43.921569%);fill-opacity:1;" d="M 455.222656 424.710938 L 455.222656 693.988281 L 455.039062 693.988281 C 454.949219 693.988281 454.859375 693.988281 454.769531 693.988281 L 454.585938 693.988281 C 454.320312 693.988281 454.050781 693.988281 453.78125 693.988281 C 453.691406 693.988281 453.691406 693.988281 453.597656 693.988281 C 453.417969 693.988281 453.238281 693.988281 453.058594 693.988281 L 452.609375 693.988281 C 451.980469 693.988281 451.441406 693.988281 450.808594 693.988281 C 450.179688 693.988281 449.640625 693.988281 449.011719 693.988281 L 448.652344 693.988281 C 448.558594 693.988281 448.472656 693.988281 448.378906 693.988281 C 448.199219 693.988281 448.019531 693.988281 447.835938 693.988281 C 447.570312 693.988281 447.300781 693.988281 447.03125 693.988281 L 446.847656 693.988281 C 446.761719 693.988281 446.667969 693.988281 446.582031 693.988281 L 446.402344 693.988281 L 446.402344 424.710938 C 446.761719 424.710938 447.03125 424.710938 447.390625 424.710938 C 448.558594 424.710938 449.640625 424.710938 450.808594 424.710938 C 451.980469 424.710938 453.058594 424.710938 454.230469 424.710938 C 454.585938 424.710938 454.859375 424.710938 455.222656 424.710938 Z M 455.222656 424.710938 "/>
<path style=" stroke:none;fill-rule:nonzero;fill:rgb(98.823529%,31.764707%,52.156866%);fill-opacity:1;" d="M 446.402344 694.082031 C 446.582031 694.082031 446.847656 694.082031 447.03125 694.082031 C 446.847656 694.082031 446.582031 694.082031 446.402344 694.082031 Z M 455.222656 424.710938 L 455.222656 428.582031 C 455.039062 428.582031 454.859375 428.582031 454.769531 428.582031 C 454.410156 428.582031 454.050781 428.582031 453.597656 428.582031 C 452.699219 428.582031 451.710938 428.582031 450.808594 428.582031 C 449.910156 428.582031 448.917969 428.582031 448.019531 428.582031 C 447.660156 428.582031 447.210938 428.582031 446.847656 428.582031 C 446.667969 428.582031 446.488281 428.582031 446.402344 428.582031 L 446.402344 424.710938 C 446.761719 424.710938 447.03125 424.710938 447.390625 424.710938 C 448.558594 424.710938 449.640625 424.710938 450.808594 424.710938 C 451.980469 424.710938 453.058594 424.710938 454.230469 424.710938 C 454.585938 424.710938 454.859375 424.710938 455.222656 424.710938 Z M 450.808594 694.167969 C 451.800781 694.167969 452.789062 694.167969 453.78125 694.167969 C 452.789062 694.082031 451.800781 694.167969 450.808594 694.167969 Z M 454.585938 694.082031 C 454.769531 694.082031 455.039062 694.082031 455.222656 694.082031 C 455.039062 694.082031 454.769531 694.082031 454.585938 694.082031 Z M 450.808594 694.167969 C 449.820312 694.167969 448.832031 694.167969 447.835938 694.167969 C 448.832031 694.082031 449.820312 694.167969 450.808594 694.167969 Z M 450.808594 694.167969 "/>
<path style=" stroke:none;fill-rule:nonzero;fill:rgb(89.411765%,23.921569%,43.921569%);fill-opacity:1;" d="M 546.121094 654.664062 C 545.039062 655.738281 544.050781 656.730469 542.972656 657.71875 L 352.441406 467.28125 C 353.429688 466.199219 354.511719 465.121094 355.5 464.128906 C 356.582031 463.050781 357.570312 462.058594 358.652344 461.070312 L 549.085938 651.511719 C 548.191406 652.585938 547.109375 653.582031 546.121094 654.664062 Z M 546.121094 654.664062 "/>
<path style=" stroke:none;fill-rule:nonzero;fill:rgb(98.823529%,31.764707%,52.156866%);fill-opacity:1;" d="M 542.519531 657.359375 L 542.878906 657.71875 C 543.960938 656.730469 545.039062 655.652344 546.03125 654.664062 C 547.109375 653.582031 548.097656 652.585938 549.085938 651.511719 L 548.640625 651.058594 C 546.75 653.21875 544.679688 655.289062 542.519531 657.359375 Z M 361.082031 463.410156 L 358.738281 461.070312 C 357.660156 462.058594 356.582031 463.140625 355.585938 464.128906 C 354.511719 465.210938 353.519531 466.199219 352.53125 467.28125 L 354.871094 469.621094 C 356.847656 467.460938 358.917969 465.390625 361.082031 463.410156 Z M 361.082031 463.410156 "/>
<path style=" stroke:none;fill-rule:nonzero;fill:rgb(89.411765%,23.921569%,43.921569%);fill-opacity:1;" d="M 549.179688 467.28125 L 443.25 573.210938 L 436.5 579.871094 L 420.570312 595.800781 L 417.417969 598.949219 L 358.738281 657.628906 C 357.660156 656.640625 356.582031 655.652344 355.585938 654.570312 C 355.320312 654.300781 354.960938 653.941406 354.691406 653.667969 C 353.972656 652.949219 353.335938 652.230469 352.621094 651.511719 C 352.621094 651.511719 352.53125 651.417969 352.53125 651.417969 L 415.53125 588.417969 L 416.972656 586.980469 L 419.941406 584.011719 L 479.519531 524.429688 L 543.058594 460.890625 C 543.332031 461.160156 543.691406 461.519531 543.960938 461.789062 C 544.585938 462.332031 545.128906 462.871094 545.667969 463.5 C 545.847656 463.679688 546.03125 463.859375 546.210938 463.949219 C 546.390625 464.128906 546.570312 464.402344 546.835938 464.582031 C 547.019531 464.761719 547.109375 464.847656 547.289062 465.03125 C 547.472656 465.210938 547.652344 465.390625 547.832031 465.570312 C 548.28125 466.109375 548.820312 466.558594 549.269531 467.097656 C 549.085938 467.28125 549.085938 467.28125 549.179688 467.28125 Z M 549.179688 467.28125 "/>
<path style=" stroke:none;fill-rule:nonzero;fill:rgb(98.823529%,31.764707%,52.156866%);fill-opacity:1;" d="M 549.179688 467.28125 L 546.835938 469.621094 C 546.300781 469.082031 545.847656 468.539062 545.308594 468 C 544.769531 467.460938 544.230469 466.917969 543.78125 466.472656 C 543.332031 466.019531 542.878906 465.660156 542.429688 465.210938 L 541.800781 464.582031 C 541.441406 464.222656 540.988281 463.859375 540.628906 463.410156 L 542.972656 461.070312 C 543.238281 461.335938 543.597656 461.699219 543.871094 461.972656 C 544.5 462.511719 545.039062 463.050781 545.582031 463.679688 C 545.761719 463.859375 545.941406 464.039062 546.121094 464.128906 C 546.300781 464.308594 546.480469 464.582031 546.75 464.761719 C 546.929688 464.941406 547.019531 465.03125 547.199219 465.210938 C 547.378906 465.390625 547.558594 465.570312 547.738281 465.75 C 548.191406 466.199219 548.640625 466.738281 549.179688 467.28125 Z M 352.890625 651.058594 L 352.441406 651.511719 C 353.429688 652.585938 354.511719 653.667969 355.5 654.664062 C 356.582031 655.738281 357.570312 656.730469 358.652344 657.71875 L 359.011719 657.359375 C 356.941406 655.289062 354.871094 653.21875 352.890625 651.058594 Z M 352.890625 651.058594 "/>
<path style=" stroke:none;fill-rule:nonzero;fill:rgb(94.117647%,43.137255%,58.823532%);fill-opacity:1;" d="M 556.472656 559.441406 C 556.472656 617.796875 509.164062 665.097656 450.808594 665.097656 C 392.453125 665.097656 345.152344 617.796875 345.152344 559.441406 C 345.152344 501.085938 392.453125 453.78125 450.808594 453.78125 C 509.164062 453.78125 556.472656 501.085938 556.472656 559.441406 Z M 556.472656 559.441406 "/>
<path style=" stroke:none;fill-rule:nonzero;fill:rgb(98.823529%,31.764707%,52.156866%);fill-opacity:1;" d="M 546.121094 559.441406 C 546.121094 612.078125 503.445312 654.75 450.808594 654.75 C 398.171875 654.75 355.5 612.078125 355.5 559.441406 C 355.5 506.804688 398.171875 464.128906 450.808594 464.128906 C 503.445312 464.128906 546.121094 506.804688 546.121094 559.441406 Z M 546.121094 559.441406 "/>
<path style=" stroke:none;fill-rule:nonzero;fill:rgb(65.490198%,16.078432%,30.980393%);fill-opacity:1;" d="M 499.769531 565.378906 L 454.230469 491.222656 C 453.238281 489.597656 450.902344 489.597656 449.820312 491.222656 L 404.28125 565.378906 C 403.558594 566.550781 403.917969 568.167969 405.179688 568.890625 L 450.722656 596.335938 C 451.53125 596.789062 452.519531 596.789062 453.332031 596.335938 L 498.871094 568.890625 C 500.128906 568.167969 500.488281 566.550781 499.769531 565.378906 Z M 499.769531 565.378906 "/>
<path style=" stroke:none;fill-rule:nonzero;fill:rgb(65.490198%,16.078432%,30.980393%);fill-opacity:1;" d="M 497.609375 580.679688 L 453.417969 607.859375 C 452.609375 608.402344 451.53125 608.402344 450.722656 607.859375 L 406.53125 580.679688 C 405.722656 580.230469 404.820312 581.128906 405.359375 581.941406 L 449.910156 645.390625 C 450.902344 646.832031 453.058594 646.832031 454.140625 645.390625 L 498.691406 581.941406 C 499.230469 581.128906 498.332031 580.230469 497.609375 580.679688 Z M 497.609375 580.679688 "/>
<path style=" stroke:none;fill-rule:nonzero;fill:rgb(94.117647%,94.117647%,94.117647%);fill-opacity:1;" d="M 499.769531 557.640625 L 454.230469 483.480469 C 453.238281 481.859375 450.902344 481.859375 449.820312 483.480469 L 404.28125 557.640625 C 403.558594 558.808594 403.917969 560.429688 405.179688 561.152344 L 450.722656 588.597656 C 451.53125 589.050781 452.519531 589.050781 453.332031 588.597656 L 498.871094 561.152344 C 500.128906 560.429688 500.488281 558.808594 499.769531 557.640625 Z M 499.769531 557.640625 "/>
<path style=" stroke:none;fill-rule:nonzero;fill:rgb(94.117647%,94.117647%,94.117647%);fill-opacity:1;" d="M 497.609375 572.941406 L 453.417969 600.121094 C 452.609375 600.664062 451.53125 600.664062 450.722656 600.121094 L 406.53125 572.941406 C 405.722656 572.488281 404.820312 573.390625 405.359375 574.199219 L 449.910156 637.652344 C 450.902344 639.085938 453.058594 639.085938 454.140625 637.652344 L 498.691406 574.199219 C 499.230469 573.480469 498.332031 572.488281 497.609375 572.941406 Z M 497.609375 572.941406 "/>
<path style=" stroke:none;fill-rule:nonzero;fill:rgb(82.352942%,82.352942%,82.352942%);fill-opacity:1;" d="M 496.261719 551.972656 L 453.417969 577.800781 C 452.609375 578.25 451.621094 578.25 450.808594 577.800781 L 407.878906 551.972656 L 404.371094 557.640625 C 403.652344 558.808594 404.011719 560.429688 405.269531 561.152344 L 450.808594 588.597656 C 451.621094 589.050781 452.609375 589.050781 453.417969 588.597656 L 498.960938 561.152344 C 500.222656 560.429688 500.582031 558.808594 499.859375 557.640625 Z M 496.261719 551.972656 "/>
<path style=" stroke:none;fill-rule:nonzero;fill:rgb(82.352942%,82.352942%,82.352942%);fill-opacity:1;" d="M 497.609375 572.941406 L 487.800781 578.96875 L 454.140625 626.847656 C 453.152344 628.289062 450.988281 628.289062 449.910156 626.847656 L 416.25 578.96875 L 406.441406 572.941406 C 405.628906 572.488281 404.730469 573.390625 405.269531 574.199219 L 449.820312 637.652344 C 450.808594 639.085938 452.972656 639.085938 454.050781 637.652344 L 498.597656 574.199219 C 499.230469 573.480469 498.332031 572.488281 497.609375 572.941406 Z M 497.609375 572.941406 "/>
<path style=" stroke:none;fill-rule:nonzero;fill:rgb(65.490198%,16.078432%,30.980393%);fill-opacity:1;" d="M 549.179688 467.28125 C 548.640625 466.738281 548.191406 466.199219 547.652344 465.660156 C 547.472656 465.480469 547.289062 465.300781 547.109375 465.121094 C 546.929688 464.941406 546.835938 464.847656 546.660156 464.667969 C 546.480469 464.488281 546.300781 464.222656 546.03125 464.039062 C 545.847656 463.859375 545.667969 463.679688 545.488281 463.585938 C 544.949219 463.050781 544.320312 462.417969 543.78125 461.878906 C 543.511719 461.609375 543.152344 461.25 542.878906 460.980469 C 519.835938 439.378906 489.058594 425.699219 455.222656 424.621094 C 454.859375 424.621094 454.585938 424.621094 454.230469 424.621094 C 453.058594 424.621094 451.980469 424.621094 450.808594 424.621094 C 449.640625 424.621094 448.558594 424.621094 447.390625 424.621094 C 447.03125 424.621094 446.761719 424.621094 446.402344 424.621094 C 438.03125 424.890625 429.835938 425.878906 421.917969 427.679688 C 422.011719 428.941406 422.097656 430.289062 422.191406 431.550781 C 422.910156 440.097656 424.347656 448.472656 426.597656 456.480469 C 427.5 459.808594 428.582031 463.140625 429.75 466.378906 C 433.261719 476.097656 437.847656 485.371094 443.429688 493.917969 L 449.910156 483.390625 C 450.902344 481.769531 453.238281 481.769531 454.320312 483.390625 L 486.359375 535.679688 C 503.820312 546.390625 523.980469 553.230469 545.582031 554.941406 C 545.761719 554.941406 545.941406 554.941406 546.121094 554.941406 C 548.097656 555.121094 550.167969 555.210938 552.152344 555.300781 C 552.332031 555.300781 552.511719 555.300781 552.691406 555.300781 C 552.871094 555.300781 553.050781 555.300781 553.230469 555.300781 C 554.308594 555.300781 555.390625 555.300781 556.558594 555.300781 L 556.652344 555.300781 C 557.730469 555.300781 558.902344 555.300781 559.980469 555.300781 C 560.160156 555.300781 560.335938 555.300781 560.519531 555.300781 C 560.699219 555.300781 560.878906 555.300781 561.058594 555.300781 C 563.222656 555.210938 565.472656 555.121094 567.628906 554.941406 C 573.03125 554.488281 578.335938 553.769531 583.46875 552.691406 C 584.097656 552.597656 584.820312 552.417969 585.449219 552.238281 C 583.652344 519.480469 570.238281 489.78125 549.179688 467.28125 Z M 549.179688 467.28125 "/>
<path style=" stroke:none;fill-rule:nonzero;fill:rgb(74.509805%,74.509805%,74.509805%);fill-opacity:1;" d="M 454.230469 483.480469 C 453.238281 481.859375 450.902344 481.859375 449.820312 483.480469 L 443.335938 494.011719 C 444.152344 495.269531 444.960938 496.441406 445.859375 497.699219 C 446.039062 497.972656 446.222656 498.152344 446.402344 498.417969 C 449.097656 502.289062 452.070312 506.070312 455.222656 509.582031 C 457.019531 511.652344 458.910156 513.722656 460.890625 515.699219 C 460.980469 515.789062 461.070312 515.878906 461.160156 515.972656 C 461.335938 516.152344 461.429688 516.238281 461.609375 516.417969 C 462.332031 517.140625 463.140625 517.949219 463.949219 518.667969 C 464.039062 518.761719 464.222656 518.941406 464.308594 519.03125 C 467.820312 522.359375 471.597656 525.511719 475.472656 528.390625 C 476.371094 529.109375 477.359375 529.738281 478.261719 530.460938 C 479.789062 531.539062 481.230469 532.53125 482.847656 533.519531 C 484.019531 534.238281 485.097656 534.960938 486.269531 535.679688 Z M 454.230469 483.480469 "/>
<path style=" stroke:none;fill-rule:nonzero;fill:rgb(100%,20.784314%,44.705883%);fill-opacity:1;" d="M 691.199219 409.679688 C 691.199219 411.121094 691.199219 412.652344 691.109375 414.085938 C 688.769531 486.449219 629.371094 544.410156 556.472656 544.410156 C 483.570312 544.410156 424.167969 486.449219 421.832031 414.085938 C 421.738281 412.652344 421.738281 411.121094 421.738281 409.679688 C 421.738281 408.238281 421.738281 406.710938 421.832031 405.269531 C 424.167969 332.910156 483.570312 274.949219 556.472656 274.949219 C 629.371094 274.949219 688.769531 332.910156 691.109375 405.269531 C 691.199219 406.710938 691.199219 408.152344 691.199219 409.679688 Z M 691.199219 409.679688 "/>
<path style=" stroke:none;fill-rule:nonzero;fill:rgb(90.588236%,15.294118%,38.039216%);fill-opacity:1;" d="M 689.308594 411.570312 C 689.308594 413.011719 689.308594 414.449219 689.21875 415.890625 C 686.96875 487.261719 628.378906 544.320312 556.472656 544.320312 C 484.558594 544.320312 426.058594 487.167969 423.722656 415.890625 C 423.628906 414.449219 423.628906 413.011719 423.628906 411.570312 C 423.628906 410.128906 423.628906 408.691406 423.722656 407.25 C 425.972656 335.878906 484.558594 278.820312 556.472656 278.820312 C 628.378906 278.820312 686.878906 335.972656 689.21875 407.25 C 689.21875 408.691406 689.308594 410.128906 689.308594 411.570312 Z M 689.308594 411.570312 "/>
<path style=" stroke:none;fill-rule:nonzero;fill:rgb(96.862745%,8.235294%,35.294119%);fill-opacity:1;" d="M 691.199219 409.679688 C 691.199219 411.121094 691.199219 412.652344 691.109375 414.085938 L 421.832031 414.085938 C 421.738281 412.652344 421.738281 411.121094 421.738281 409.679688 C 421.738281 408.238281 421.738281 406.710938 421.832031 405.269531 L 691.109375 405.269531 C 691.199219 406.710938 691.199219 408.152344 691.199219 409.679688 Z M 691.199219 409.679688 "/>
<path style=" stroke:none;fill-rule:nonzero;fill:rgb(99.607843%,22.745098%,46.27451%);fill-opacity:1;" d="M 691.109375 405.269531 L 689.128906 405.269531 C 689.128906 405.902344 689.21875 406.621094 689.21875 407.25 C 689.308594 408.691406 689.308594 410.128906 689.308594 411.570312 C 689.308594 412.378906 689.308594 413.191406 689.308594 414.085938 L 691.199219 414.085938 C 691.289062 412.652344 691.289062 411.121094 691.289062 409.679688 C 691.199219 408.152344 691.199219 406.710938 691.109375 405.269531 Z M 423.628906 411.570312 C 423.628906 410.128906 423.628906 408.691406 423.722656 407.25 C 423.722656 406.621094 423.808594 405.902344 423.808594 405.269531 L 421.832031 405.269531 C 421.738281 406.710938 421.738281 408.238281 421.738281 409.679688 C 421.738281 411.121094 421.738281 412.652344 421.832031 414.085938 L 423.722656 414.085938 C 423.722656 413.28125 423.628906 412.472656 423.628906 411.570312 Z M 423.628906 411.570312 "/>
<path style=" stroke:none;fill-rule:nonzero;fill:rgb(96.862745%,8.235294%,35.294119%);fill-opacity:1;" d="M 556.472656 274.949219 C 557.910156 274.949219 559.441406 274.949219 560.878906 275.039062 L 560.878906 544.320312 C 559.441406 544.410156 557.910156 544.410156 556.472656 544.410156 C 555.03125 544.410156 553.5 544.410156 552.058594 544.320312 L 552.058594 275.039062 C 553.5 274.949219 555.03125 274.949219 556.472656 274.949219 Z M 556.472656 274.949219 "/>
<path style=" stroke:none;fill-rule:nonzero;fill:rgb(99.607843%,22.745098%,46.27451%);fill-opacity:1;" d="M 552.058594 544.320312 C 552.238281 544.320312 552.511719 544.320312 552.691406 544.320312 C 552.511719 544.320312 552.238281 544.320312 552.058594 544.320312 Z M 556.472656 278.820312 C 557.910156 278.820312 559.441406 278.820312 560.878906 278.914062 L 560.878906 275.039062 C 559.441406 274.949219 557.910156 274.949219 556.472656 274.949219 C 555.03125 274.949219 553.5 274.949219 552.058594 275.039062 L 552.058594 278.914062 C 553.5 278.820312 555.03125 278.820312 556.472656 278.820312 Z M 556.472656 544.410156 C 557.460938 544.410156 558.449219 544.410156 559.441406 544.410156 C 558.449219 544.410156 557.460938 544.410156 556.472656 544.410156 Z M 560.25 544.320312 C 560.429688 544.320312 560.699219 544.320312 560.878906 544.320312 C 560.699219 544.320312 560.429688 544.320312 560.25 544.320312 Z M 556.472656 544.410156 C 555.480469 544.410156 554.488281 544.410156 553.5 544.410156 C 554.488281 544.410156 555.480469 544.410156 556.472656 544.410156 Z M 556.472656 544.410156 "/>
<path style=" stroke:none;fill-rule:nonzero;fill:rgb(96.862745%,8.235294%,35.294119%);fill-opacity:1;" d="M 651.78125 504.902344 C 650.699219 505.980469 649.710938 506.972656 648.628906 507.960938 L 458.097656 317.609375 C 459.085938 316.53125 460.167969 315.449219 461.160156 314.460938 C 462.238281 313.378906 463.230469 312.390625 464.308594 311.402344 L 654.75 501.835938 C 653.847656 502.832031 652.769531 503.910156 651.78125 504.902344 Z M 651.78125 504.902344 "/>
<path style=" stroke:none;fill-rule:nonzero;fill:rgb(99.607843%,22.745098%,46.27451%);fill-opacity:1;" d="M 648.179688 507.597656 L 648.539062 507.960938 C 649.621094 506.972656 650.699219 505.890625 651.691406 504.902344 C 652.679688 503.910156 653.761719 502.832031 654.75 501.75 L 654.300781 501.300781 C 652.414062 503.460938 650.335938 505.621094 648.179688 507.597656 Z M 466.738281 313.738281 L 464.402344 311.402344 C 463.320312 312.390625 462.238281 313.472656 461.25 314.460938 C 460.167969 315.539062 459.179688 316.53125 458.191406 317.609375 L 460.53125 319.949219 C 462.511719 317.789062 464.582031 315.722656 466.738281 313.738281 Z M 466.738281 313.738281 "/>
<path style=" stroke:none;fill-rule:nonzero;fill:rgb(96.862745%,8.235294%,35.294119%);fill-opacity:1;" d="M 651.78125 314.371094 C 652.859375 315.449219 653.847656 316.441406 654.835938 317.519531 L 464.402344 508.050781 C 463.320312 507.058594 462.238281 505.980469 461.25 504.988281 C 460.167969 503.910156 459.179688 502.917969 458.191406 501.835938 L 648.628906 311.402344 C 649.621094 312.300781 650.699219 313.378906 651.78125 314.371094 Z M 651.78125 314.371094 "/>
<path style=" stroke:none;fill-rule:nonzero;fill:rgb(99.607843%,22.745098%,46.27451%);fill-opacity:1;" d="M 652.5 319.859375 L 654.835938 317.519531 C 653.847656 316.441406 652.769531 315.359375 651.78125 314.371094 C 650.699219 313.289062 649.710938 312.300781 648.628906 311.308594 L 646.289062 313.652344 C 648.359375 315.722656 650.429688 317.789062 652.5 319.859375 Z M 458.550781 501.300781 L 458.097656 501.75 C 459.085938 502.832031 460.167969 503.910156 461.160156 504.902344 C 462.238281 505.980469 463.230469 506.972656 464.308594 507.960938 L 464.667969 507.597656 C 462.597656 505.621094 460.53125 503.460938 458.550781 501.300781 Z M 458.550781 501.300781 "/>
<path style=" stroke:none;fill-rule:nonzero;fill:rgb(100%,20.784314%,44.705883%);fill-opacity:1;" d="M 662.128906 409.679688 C 662.128906 468.035156 614.824219 515.335938 556.472656 515.335938 C 498.117188 515.335938 450.808594 468.035156 450.808594 409.679688 C 450.808594 351.324219 498.117188 304.019531 556.472656 304.019531 C 614.824219 304.019531 662.128906 351.324219 662.128906 409.679688 Z M 662.128906 409.679688 "/>
<path style=" stroke:none;fill-rule:nonzero;fill:rgb(99.607843%,22.745098%,46.27451%);fill-opacity:1;" d="M 651.78125 409.679688 C 651.78125 462.316406 609.109375 504.988281 556.472656 504.988281 C 503.832031 504.988281 461.160156 462.316406 461.160156 409.679688 C 461.160156 357.042969 503.832031 314.371094 556.472656 314.371094 C 609.109375 314.371094 651.78125 357.042969 651.78125 409.679688 Z M 651.78125 409.679688 "/>
<path style=" stroke:none;fill-rule:nonzero;fill:rgb(90.588236%,15.294118%,38.039216%);fill-opacity:1;" d="M 600.664062 431.640625 C 599.308594 428.308594 597.417969 425.25 594.988281 422.640625 C 593.550781 421.019531 591.929688 419.667969 590.128906 418.410156 C 591.121094 417.511719 591.929688 416.519531 592.738281 415.441406 C 594.628906 412.917969 596.070312 410.039062 596.96875 406.890625 C 597.871094 403.832031 598.320312 400.585938 598.320312 397.261719 C 598.320312 392.128906 597.417969 387.539062 595.53125 383.582031 C 593.640625 379.53125 590.847656 376.109375 587.335938 373.5 C 583.917969 370.980469 579.871094 369.085938 575.191406 367.917969 C 573.480469 367.472656 571.679688 367.109375 569.789062 366.929688 L 569.789062 355.679688 C 569.789062 351.179688 566.191406 347.582031 561.691406 347.582031 C 557.191406 347.582031 553.585938 351.179688 553.585938 355.679688 L 553.585938 366.300781 L 545.128906 366.300781 L 545.128906 355.679688 C 545.128906 351.179688 541.53125 347.582031 537.03125 347.582031 C 532.53125 347.582031 528.929688 351.179688 528.929688 355.679688 L 528.929688 366.300781 L 518.308594 366.300781 C 513.808594 366.300781 510.210938 369.902344 510.210938 374.402344 C 510.210938 378.902344 513.808594 382.5 518.308594 382.5 L 528.929688 382.5 L 528.929688 459 L 518.308594 459 C 513.808594 459 510.210938 462.597656 510.210938 467.097656 C 510.210938 471.597656 513.808594 475.199219 518.308594 475.199219 L 528.929688 475.199219 L 528.929688 485.820312 C 528.929688 490.320312 532.53125 493.917969 537.03125 493.917969 C 541.53125 493.917969 545.128906 490.320312 545.128906 485.820312 L 545.128906 475.199219 L 553.585938 475.199219 L 553.585938 485.820312 C 553.585938 490.320312 557.191406 493.917969 561.691406 493.917969 C 566.191406 493.917969 569.789062 490.320312 569.789062 485.820312 L 569.789062 475.109375 C 573.570312 474.835938 577.167969 474.210938 580.585938 473.222656 C 585.085938 471.78125 588.960938 469.710938 592.289062 466.917969 C 595.621094 464.039062 598.230469 460.53125 600.121094 456.300781 C 601.917969 452.160156 602.820312 447.480469 602.820312 442.347656 C 602.820312 438.660156 602.097656 434.972656 600.664062 431.640625 Z M 553.585938 382.410156 L 560.609375 382.410156 C 568.441406 382.410156 574.109375 383.761719 577.710938 386.371094 C 579.597656 387.808594 582.121094 390.417969 582.121094 396.902344 C 582.121094 404.371094 578.96875 406.800781 577.980469 407.519531 C 574.652344 410.039062 569.25 411.300781 561.960938 411.300781 L 545.222656 411.300781 L 545.222656 382.320312 L 553.585938 382.320312 Z M 585.269531 449.640625 C 584.460938 451.621094 583.289062 453.238281 581.761719 454.5 C 580.140625 455.847656 578.164062 456.929688 575.730469 457.738281 C 573.121094 458.550781 570.058594 459 566.730469 459 L 545.222656 459 L 545.222656 427.679688 L 567.359375 427.679688 C 570.871094 427.679688 573.929688 428.128906 576.359375 429.03125 C 578.789062 429.929688 580.679688 431.011719 582.210938 432.449219 C 583.652344 433.800781 584.730469 435.332031 585.449219 436.949219 C 586.167969 438.75 586.53125 440.550781 586.53125 442.441406 C 586.53125 445.140625 586.082031 447.570312 585.269531 449.640625 Z M 585.269531 449.640625 "/>
<path style=" stroke:none;fill-rule:nonzero;fill:rgb(94.117647%,94.117647%,94.117647%);fill-opacity:1;" d="M 600.664062 420.570312 C 599.308594 417.238281 597.417969 414.179688 594.988281 411.570312 C 593.550781 409.949219 591.929688 408.597656 590.128906 407.335938 C 591.121094 406.441406 591.929688 405.449219 592.738281 404.371094 C 594.628906 401.847656 596.070312 398.972656 596.96875 395.820312 C 597.871094 392.761719 598.320312 389.519531 598.320312 386.191406 C 598.320312 381.058594 597.417969 376.472656 595.53125 372.511719 C 593.640625 368.460938 590.847656 365.039062 587.335938 362.429688 C 583.917969 359.910156 579.871094 358.019531 575.191406 356.847656 C 573.480469 356.402344 571.679688 356.039062 569.789062 355.859375 L 569.789062 344.609375 C 569.789062 340.109375 566.191406 336.511719 561.691406 336.511719 C 557.191406 336.511719 553.585938 340.109375 553.585938 344.609375 L 553.585938 355.230469 L 545.128906 355.230469 L 545.128906 344.609375 C 545.128906 340.109375 541.53125 336.511719 537.03125 336.511719 C 532.53125 336.511719 528.929688 340.109375 528.929688 344.609375 L 528.929688 355.230469 L 518.308594 355.230469 C 513.808594 355.230469 510.210938 358.832031 510.210938 363.332031 C 510.210938 367.832031 513.808594 371.429688 518.308594 371.429688 L 528.929688 371.429688 L 528.929688 447.929688 L 518.308594 447.929688 C 513.808594 447.929688 510.210938 451.53125 510.210938 456.03125 C 510.210938 460.53125 513.808594 464.128906 518.308594 464.128906 L 528.929688 464.128906 L 528.929688 474.75 C 528.929688 479.25 532.53125 482.847656 537.03125 482.847656 C 541.53125 482.847656 545.128906 479.25 545.128906 474.75 L 545.128906 464.128906 L 553.585938 464.128906 L 553.585938 474.75 C 553.585938 479.25 557.191406 482.847656 561.691406 482.847656 C 566.191406 482.847656 569.789062 479.25 569.789062 474.75 L 569.789062 464.039062 C 573.570312 463.769531 577.167969 463.140625 580.585938 462.152344 C 585.085938 460.710938 588.960938 458.640625 592.289062 455.847656 C 595.621094 452.972656 598.230469 449.460938 600.121094 445.230469 C 601.917969 441.085938 602.820312 436.410156 602.820312 431.28125 C 602.820312 427.585938 602.097656 423.988281 600.664062 420.570312 Z M 553.585938 371.429688 L 560.609375 371.429688 C 568.441406 371.429688 574.109375 372.78125 577.710938 375.390625 C 579.597656 376.832031 582.121094 379.441406 582.121094 385.917969 C 582.121094 393.390625 578.96875 395.820312 577.980469 396.539062 C 574.652344 399.058594 569.25 400.320312 561.960938 400.320312 L 545.222656 400.320312 L 545.222656 371.335938 L 553.585938 371.335938 Z M 585.269531 438.570312 C 584.460938 440.550781 583.289062 442.167969 581.761719 443.429688 C 580.140625 444.78125 578.164062 445.859375 575.730469 446.667969 C 573.121094 447.480469 570.058594 447.929688 566.730469 447.929688 L 545.222656 447.929688 L 545.222656 416.609375 L 567.359375 416.609375 C 570.871094 416.609375 573.929688 417.058594 576.359375 417.960938 C 578.789062 418.859375 580.679688 419.941406 582.210938 421.378906 C 583.652344 422.730469 584.730469 424.261719 585.449219 425.878906 C 586.167969 427.679688 586.53125 429.480469 586.53125 431.371094 C 586.53125 434.160156 586.082031 436.5 585.269531 438.570312 Z M 585.269531 438.570312 "/>
<path style=" stroke:none;fill-rule:nonzero;fill:rgb(82.352942%,82.352942%,82.352942%);fill-opacity:1;" d="M 528.929688 459.722656 L 518.308594 459.722656 C 514.621094 459.722656 511.472656 457.199219 510.480469 453.78125 C 510.300781 454.5 510.210938 455.222656 510.210938 456.03125 C 510.210938 460.53125 513.808594 464.128906 518.308594 464.128906 L 528.929688 464.128906 Z M 592.832031 399.960938 C 592.019531 401.039062 591.121094 402.03125 590.21875 402.929688 C 591.03125 403.472656 591.835938 404.097656 592.558594 404.730469 C 592.652344 404.640625 592.738281 404.460938 592.832031 404.371094 C 594.71875 401.847656 596.164062 398.972656 597.058594 395.820312 C 597.960938 392.761719 598.414062 389.519531 598.414062 386.191406 C 598.414062 385.378906 598.414062 384.660156 598.320312 383.847656 C 598.140625 386.460938 597.78125 388.980469 597.058594 391.410156 C 596.164062 394.558594 594.71875 397.441406 592.832031 399.960938 Z M 545.128906 367.019531 L 545.128906 371.429688 L 560.609375 371.429688 C 568.441406 371.429688 574.109375 372.78125 577.710938 375.390625 C 579.417969 376.652344 581.582031 378.808594 582.03125 383.761719 C 582.121094 383.039062 582.121094 382.320312 582.121094 381.511719 C 582.121094 375.03125 579.597656 372.332031 577.710938 370.980469 C 574.199219 368.371094 568.441406 367.019531 560.609375 367.019531 Z M 585.449219 421.472656 C 584.730469 419.761719 583.652344 418.320312 582.210938 416.972656 C 580.679688 415.621094 578.789062 414.449219 576.359375 413.550781 C 573.835938 412.652344 570.871094 412.199219 567.359375 412.199219 L 545.222656 412.199219 L 545.222656 416.609375 L 567.359375 416.609375 C 570.871094 416.609375 573.929688 417.058594 576.359375 417.960938 C 578.789062 418.859375 580.679688 419.941406 582.210938 421.378906 C 583.652344 422.730469 584.730469 424.261719 585.449219 425.878906 C 585.902344 427.050781 586.261719 428.222656 586.441406 429.480469 C 586.53125 428.667969 586.621094 427.859375 586.621094 427.050781 C 586.53125 425.070312 586.167969 423.269531 585.449219 421.472656 Z M 518.308594 371.429688 L 528.929688 371.429688 L 528.929688 367.019531 L 518.308594 367.019531 C 514.621094 367.019531 511.472656 364.5 510.480469 361.082031 C 510.300781 361.800781 510.210938 362.519531 510.210938 363.332031 C 510.121094 367.738281 513.808594 371.429688 518.308594 371.429688 Z M 561.691406 478.53125 C 557.191406 478.53125 553.585938 474.929688 553.585938 470.429688 L 553.585938 474.835938 C 553.585938 479.335938 557.191406 482.941406 561.691406 482.941406 C 566.191406 482.941406 569.789062 479.335938 569.789062 474.835938 L 569.789062 470.429688 C 569.878906 474.835938 566.191406 478.53125 561.691406 478.53125 Z M 537.03125 478.53125 C 532.53125 478.53125 528.929688 474.929688 528.929688 470.429688 L 528.929688 474.835938 C 528.929688 479.335938 532.53125 482.941406 537.03125 482.941406 C 541.53125 482.941406 545.128906 479.335938 545.128906 474.835938 L 545.128906 470.429688 C 545.128906 474.835938 541.53125 478.53125 537.03125 478.53125 Z M 600.03125 440.820312 C 598.230469 444.960938 595.53125 448.558594 592.199219 451.441406 C 588.960938 454.230469 585 456.390625 580.5 457.738281 C 577.167969 458.820312 573.570312 459.449219 569.699219 459.628906 L 569.699219 464.039062 C 573.480469 463.769531 577.082031 463.140625 580.5 462.152344 C 585 460.710938 588.871094 458.640625 592.199219 455.847656 C 595.53125 452.972656 598.140625 449.460938 600.03125 445.230469 C 601.832031 441.085938 602.730469 436.410156 602.730469 431.28125 C 602.730469 430.652344 602.730469 429.929688 602.640625 429.300781 C 602.460938 433.53125 601.558594 437.402344 600.03125 440.820312 Z M 600.03125 440.820312 "/>
<path style=" stroke:none;fill-rule:nonzero;fill:rgb(82.352942%,82.352942%,82.352942%);fill-opacity:1;" d="M 553.585938 459.722656 L 545.128906 459.722656 L 545.128906 464.128906 L 553.585938 464.128906 Z M 553.585938 459.722656 "/>
</g>
</svg>
