<svg xmlns="http://www.w3.org/2000/svg" xmlns:xlink="http://www.w3.org/1999/xlink" viewBox="0 0 64 64"><defs><style>.cls-1{fill:url(#linear-gradient);}.cls-2{fill:url(#linear-gradient-2);}.cls-3{fill:url(#linear-gradient-3);}.cls-4{fill:url(#linear-gradient-4);}.cls-5{fill:url(#linear-gradient-5);}.cls-6{fill:url(#linear-gradient-6);}.cls-7{fill:url(#linear-gradient-7);}.cls-8{fill:url(#linear-gradient-8);}</style><linearGradient id="linear-gradient" x1="11.63" y1="19.36" x2="24.37" y2="6.63" gradientUnits="userSpaceOnUse"><stop offset="0" stop-color="#54a5ff"/><stop offset="1" stop-color="#8ad3fe"/></linearGradient><linearGradient id="linear-gradient-2" x1="15.09" y1="56.91" x2="24.91" y2="47.09" xlink:href="#linear-gradient"/><linearGradient id="linear-gradient-3" x1="4.59" y1="58.41" x2="11.41" y2="51.59" xlink:href="#linear-gradient"/><linearGradient id="linear-gradient-4" x1="25.59" y1="55.41" x2="38.41" y2="42.59" xlink:href="#linear-gradient"/><linearGradient id="linear-gradient-5" x1="36.09" y1="53.91" x2="51.91" y2="38.09" xlink:href="#linear-gradient"/><linearGradient id="linear-gradient-6" x1="46.59" y1="52.41" x2="65.41" y2="33.59" xlink:href="#linear-gradient"/><linearGradient id="linear-gradient-7" x1="18" y1="19" x2="18" y2="7" gradientUnits="userSpaceOnUse"><stop offset="0" stop-color="#d3e6f5"/><stop offset="1" stop-color="#f0f7fc"/></linearGradient><linearGradient id="linear-gradient-8" x1="3" y1="21" x2="61" y2="21" gradientUnits="userSpaceOnUse"><stop offset="0" stop-color="#fe9661"/><stop offset="1" stop-color="#ffb369"/></linearGradient></defs><title>Growth</title><g id="Growth"><path class="cls-1" d="M27,13a8.14,8.14,0,0,1-.06,1,8.82,8.82,0,0,1-.81,2.86,9,9,0,0,1-16.26,0A8.82,8.82,0,0,1,9.06,14,8.14,8.14,0,0,1,9,13a7,7,0,0,1,.07-1,2.3,2.3,0,0,1,0-.26A8.22,8.22,0,0,1,9.52,10a9,9,0,0,1,17,0,8.22,8.22,0,0,1,.42,1.71A7.84,7.84,0,0,1,27,13Z"/><rect class="cls-2" x="17" y="44" width="6" height="16" rx="2"/><rect class="cls-3" x="5" y="50" width="6" height="10" rx="2"/><rect class="cls-4" x="29" y="38" width="6" height="22" rx="2"/><rect class="cls-5" x="41" y="32" width="6" height="28" rx="2"/><rect class="cls-6" x="53" y="26" width="6" height="34" rx="2"/><path class="cls-7" d="M18.5,12h-1a.5.5,0,0,1,0-1H20a1,1,0,0,0,0-2H19V8a1,1,0,0,0-2,0V9.05A2.5,2.5,0,0,0,17.5,14h1a.5.5,0,0,1,0,1H16a1,1,0,0,0,0,2h1v1a1,1,0,0,0,2,0V17s0,0,0-.05A2.5,2.5,0,0,0,18.5,12Z"/><path class="cls-8" d="M60.76,7.35l-.15-.14A1,1,0,0,0,60.07,7H56a1,1,0,0,0,0,2h1.55l-5.29,5.2A65.64,65.64,0,0,1,6,33H4a1,1,0,0,0,0,2H7.14A67.52,67.52,0,0,0,53.66,15.62L59,10.38V12a1,1,0,0,0,2,0V8h0A1,1,0,0,0,60.76,7.35Z"/></g></svg>