<?xml version="1.0" encoding="UTF-8"?>
<svg xmlns="http://www.w3.org/2000/svg" xmlns:xlink="http://www.w3.org/1999/xlink" width="800px" height="800px" viewBox="0 0 800 800" version="1.1">
<g id="surface1">
<path style=" stroke:none;fill-rule:nonzero;fill:rgb(0%,77.64706%,100%);fill-opacity:1;" d="M 718.398438 400 C 718.398438 575.847656 575.847656 718.398438 400 718.398438 C 224.152344 718.398438 81.601562 575.847656 81.601562 400 C 81.601562 224.152344 224.152344 81.601562 400 81.601562 C 575.847656 81.601562 718.398438 224.152344 718.398438 400 Z M 718.398438 400 "/>
<path style=" stroke:none;fill-rule:nonzero;fill:rgb(90.980393%,83.137256%,10.588235%);fill-opacity:1;" d="M 675.441406 400 C 675.441406 552.121094 552.121094 675.441406 400 675.441406 C 247.878906 675.441406 124.558594 552.121094 124.558594 400 C 124.558594 247.878906 247.878906 124.558594 400 124.558594 C 552.121094 124.558594 675.441406 247.878906 675.441406 400 Z M 675.441406 400 "/>
<path style=" stroke:none;fill-rule:nonzero;fill:rgb(0%,77.64706%,100%);fill-opacity:1;" d="M 614.320312 376.238281 C 613.28125 344.878906 600.238281 316.558594 579.601562 295.761719 C 579.519531 295.679688 579.441406 295.601562 579.359375 295.519531 C 579.199219 295.359375 579.121094 295.28125 578.960938 295.121094 C 578.238281 294.480469 577.601562 293.761719 576.878906 293.121094 C 576.800781 293.039062 576.640625 292.878906 576.558594 292.800781 C 556 273.601562 528.71875 261.519531 498.640625 260.558594 C 498.558594 260.558594 498.480469 260.558594 498.398438 260.558594 C 497.199219 260.558594 496 260.480469 494.71875 260.480469 C 493.519531 260.480469 492.238281 260.480469 491.039062 260.558594 C 490.960938 260.558594 490.878906 260.558594 490.800781 260.558594 C 460.960938 261.519531 433.921875 273.359375 413.441406 292.320312 C 407.601562 280.160156 399.761719 269.199219 390.398438 259.679688 C 390.320312 259.601562 390.238281 259.519531 390.160156 259.441406 C 390 259.28125 389.921875 259.199219 389.761719 259.039062 C 389.039062 258.398438 388.398438 257.679688 387.679688 257.039062 C 387.601562 256.960938 387.441406 256.800781 387.359375 256.71875 C 366.800781 237.519531 339.519531 225.441406 309.441406 224.480469 C 309.359375 224.480469 309.28125 224.480469 309.199219 224.480469 C 308 224.480469 306.800781 224.398438 305.519531 224.398438 C 304.320312 224.398438 303.039062 224.398438 301.839844 224.480469 C 301.761719 224.480469 301.679688 224.480469 301.601562 224.480469 C 271.519531 225.441406 244.160156 237.519531 223.679688 256.71875 C 223.601562 256.800781 223.441406 256.960938 223.359375 257.039062 C 222.640625 257.679688 222 258.398438 221.28125 259.039062 C 221.121094 259.199219 221.039062 259.28125 220.878906 259.441406 C 220.800781 259.519531 220.71875 259.601562 220.640625 259.679688 C 200 280.480469 186.878906 308.800781 185.921875 340.160156 C 185.839844 341.441406 185.839844 342.800781 185.839844 344.078125 C 185.839844 345.359375 185.839844 346.71875 185.921875 348 C 186.960938 379.359375 200 407.679688 220.640625 428.480469 C 220.71875 428.558594 220.800781 428.640625 220.878906 428.71875 C 221.039062 428.878906 221.121094 428.960938 221.28125 429.121094 C 222 429.761719 222.640625 430.480469 223.359375 431.121094 C 223.441406 431.199219 223.601562 431.359375 223.679688 431.441406 C 242 448.640625 265.839844 460.078125 292.160156 463.039062 C 285.601562 477.199219 281.761719 492.878906 281.199219 509.359375 C 281.121094 510.640625 281.121094 512 281.121094 513.28125 C 281.121094 514.558594 281.121094 515.921875 281.199219 517.199219 C 282.160156 547.28125 294.238281 574.640625 313.441406 595.121094 C 313.441406 595.121094 313.519531 595.199219 313.519531 595.199219 C 314.078125 595.839844 314.71875 596.480469 315.359375 597.121094 C 315.601562 597.359375 315.839844 597.601562 316.160156 597.921875 C 316.160156 597.921875 316.238281 598 316.238281 598 C 317.199219 598.960938 318.078125 599.839844 319.039062 600.71875 C 339.121094 619.519531 365.601562 631.519531 394.960938 632.960938 C 395.601562 632.960938 396.320312 633.039062 396.960938 633.039062 C 397.121094 633.039062 397.359375 633.039062 397.519531 633.039062 C 397.519531 633.039062 397.519531 633.039062 397.441406 633.039062 C 397.839844 633.039062 398.238281 633.039062 398.640625 633.039062 C 398.640625 633.039062 398.71875 633.039062 398.71875 633.039062 C 398.800781 633.039062 398.878906 633.039062 398.960938 633.039062 L 399.28125 633.039062 C 399.839844 633.039062 400.320312 633.039062 400.878906 633.039062 C 401.441406 633.039062 401.921875 633.039062 402.480469 633.039062 L 402.878906 633.039062 C 403.039062 633.039062 403.199219 633.039062 403.359375 633.039062 C 403.519531 633.039062 403.679688 633.039062 403.839844 633.039062 C 404 633.039062 404.160156 633.039062 404.320312 633.039062 C 404.480469 633.039062 404.640625 633.039062 404.800781 633.039062 C 405.441406 633.039062 406.160156 633.039062 406.800781 632.960938 C 436.078125 631.519531 462.640625 619.601562 482.71875 600.71875 C 483.679688 599.839844 484.640625 598.878906 485.519531 598 L 485.839844 597.679688 C 486.078125 597.441406 486.320312 597.199219 486.558594 596.960938 C 487.121094 596.398438 487.679688 595.839844 488.160156 595.28125 C 488.160156 595.28125 488.238281 595.199219 488.238281 595.199219 C 507.441406 574.640625 519.519531 547.359375 520.480469 517.28125 C 520.480469 516.238281 520.558594 515.28125 520.558594 514.238281 C 520.558594 513.921875 520.558594 513.679688 520.558594 513.359375 C 520.558594 513.121094 520.558594 512.878906 520.558594 512.640625 C 520.558594 511.601562 520.558594 510.480469 520.480469 509.441406 C 520.480469 508.640625 520.398438 507.839844 520.398438 507.039062 C 520.238281 503.761719 519.921875 500.558594 519.519531 497.441406 C 541.28125 492.878906 560.960938 482.320312 576.558594 467.679688 C 576.640625 467.601562 576.800781 467.441406 576.878906 467.359375 C 577.601562 466.71875 578.238281 466 578.960938 465.359375 C 579.121094 465.199219 579.199219 465.121094 579.359375 464.960938 C 579.441406 464.878906 579.519531 464.800781 579.601562 464.71875 C 600.238281 443.921875 613.359375 415.601562 614.320312 384.238281 C 614.398438 382.960938 614.398438 381.601562 614.398438 380.320312 C 614.398438 378.800781 614.398438 377.519531 614.320312 376.238281 Z M 614.320312 376.238281 "/>
<path style=" stroke:none;fill-rule:nonzero;fill:rgb(22.352941%,74.117649%,78.431374%);fill-opacity:1;" d="M 425.121094 328 C 425.121094 329.28125 425.121094 330.640625 425.039062 331.921875 C 422.960938 396.238281 370.160156 447.761719 305.359375 447.761719 C 240.558594 447.761719 187.761719 396.238281 185.679688 331.921875 C 185.601562 330.640625 185.601562 329.28125 185.601562 328 C 185.601562 326.71875 185.601562 325.359375 185.679688 324.078125 C 187.761719 259.761719 240.558594 208.238281 305.359375 208.238281 C 370.160156 208.238281 422.960938 259.761719 425.039062 324.078125 C 425.121094 325.359375 425.121094 326.71875 425.121094 328 Z M 425.121094 328 "/>
<path style=" stroke:none;fill-rule:nonzero;fill:rgb(7.450981%,58.431375%,62.7451%);fill-opacity:1;" d="M 423.441406 329.679688 C 423.441406 330.960938 423.441406 332.238281 423.359375 333.519531 C 421.359375 396.960938 369.28125 447.679688 305.359375 447.679688 C 241.441406 447.679688 189.441406 396.878906 187.359375 333.519531 C 187.28125 332.238281 187.28125 330.960938 187.28125 329.679688 C 187.28125 328.398438 187.28125 327.121094 187.359375 325.839844 C 189.359375 262.398438 241.441406 211.679688 305.359375 211.679688 C 369.28125 211.679688 421.28125 262.480469 423.359375 325.839844 C 423.359375 327.121094 423.441406 328.398438 423.441406 329.679688 Z M 423.441406 329.679688 "/>
<path style=" stroke:none;fill-rule:nonzero;fill:rgb(0%,80.000001%,86.666667%);fill-opacity:1;" d="M 425.121094 328 C 425.121094 329.28125 425.121094 330.640625 425.039062 331.921875 L 185.679688 331.921875 C 185.601562 330.640625 185.601562 329.28125 185.601562 328 C 185.601562 326.71875 185.601562 325.359375 185.679688 324.078125 L 425.039062 324.078125 C 425.121094 325.359375 425.121094 326.71875 425.121094 328 Z M 425.121094 328 "/>
<path style=" stroke:none;fill-rule:nonzero;fill:rgb(10.980392%,83.529413%,89.411765%);fill-opacity:1;" d="M 425.039062 324.078125 L 423.28125 324.078125 C 423.28125 324.640625 423.359375 325.28125 423.359375 325.839844 C 423.441406 327.121094 423.441406 328.398438 423.441406 329.679688 C 423.441406 330.398438 423.441406 331.121094 423.441406 331.921875 L 425.121094 331.921875 C 425.199219 330.640625 425.199219 329.28125 425.199219 328 C 425.121094 326.71875 425.121094 325.359375 425.039062 324.078125 Z M 187.28125 329.679688 C 187.28125 328.398438 187.28125 327.121094 187.359375 325.839844 C 187.359375 325.28125 187.441406 324.640625 187.441406 324.078125 L 185.679688 324.078125 C 185.601562 325.359375 185.601562 326.71875 185.601562 328 C 185.601562 329.28125 185.601562 330.640625 185.679688 331.921875 L 187.359375 331.921875 C 187.359375 331.199219 187.28125 330.480469 187.28125 329.679688 Z M 187.28125 329.679688 "/>
<path style=" stroke:none;fill-rule:nonzero;fill:rgb(0%,80.000001%,86.666667%);fill-opacity:1;" d="M 305.359375 208.238281 C 306.640625 208.238281 308 208.238281 309.28125 208.320312 L 309.28125 447.679688 C 308 447.761719 306.640625 447.761719 305.359375 447.761719 C 304.078125 447.761719 302.71875 447.761719 301.441406 447.679688 L 301.441406 208.320312 C 302.71875 208.238281 304.078125 208.238281 305.359375 208.238281 Z M 305.359375 208.238281 "/>
<path style=" stroke:none;fill-rule:nonzero;fill:rgb(10.980392%,83.529413%,89.411765%);fill-opacity:1;" d="M 301.441406 447.679688 C 301.601562 447.679688 301.839844 447.679688 302 447.679688 C 301.839844 447.679688 301.601562 447.679688 301.441406 447.679688 Z M 305.359375 211.679688 C 306.640625 211.679688 308 211.679688 309.28125 211.761719 L 309.28125 208.320312 C 308 208.238281 306.640625 208.238281 305.359375 208.238281 C 304.078125 208.238281 302.71875 208.238281 301.441406 208.320312 L 301.441406 211.761719 C 302.71875 211.679688 304.078125 211.679688 305.359375 211.679688 Z M 305.359375 447.761719 C 306.238281 447.761719 307.121094 447.761719 308 447.761719 C 307.121094 447.761719 306.238281 447.761719 305.359375 447.761719 Z M 308.71875 447.679688 C 308.878906 447.679688 309.121094 447.679688 309.28125 447.679688 C 309.121094 447.679688 308.878906 447.679688 308.71875 447.679688 Z M 305.359375 447.761719 C 304.480469 447.761719 303.601562 447.761719 302.71875 447.761719 C 303.601562 447.761719 304.480469 447.761719 305.359375 447.761719 Z M 305.359375 447.761719 "/>
<path style=" stroke:none;fill-rule:nonzero;fill:rgb(0%,80.000001%,86.666667%);fill-opacity:1;" d="M 390.078125 412.640625 C 389.121094 413.601562 388.238281 414.480469 387.28125 415.359375 L 217.921875 246.160156 C 218.800781 245.199219 219.761719 244.238281 220.640625 243.359375 C 221.601562 242.398438 222.480469 241.519531 223.441406 240.640625 L 392.800781 409.839844 C 391.921875 410.800781 390.960938 411.761719 390.078125 412.640625 Z M 390.078125 412.640625 "/>
<path style=" stroke:none;fill-rule:nonzero;fill:rgb(10.980392%,83.529413%,89.411765%);fill-opacity:1;" d="M 386.878906 415.039062 L 387.199219 415.359375 C 388.160156 414.480469 389.121094 413.519531 390 412.640625 C 390.878906 411.761719 391.839844 410.800781 392.71875 409.839844 L 392.320312 409.441406 C 390.640625 411.359375 388.800781 413.28125 386.878906 415.039062 Z M 225.601562 242.71875 L 223.519531 240.640625 C 222.558594 241.519531 221.601562 242.480469 220.71875 243.359375 C 219.761719 244.320312 218.878906 245.199219 218 246.160156 L 220.078125 248.238281 C 221.839844 246.320312 223.679688 244.480469 225.601562 242.71875 Z M 225.601562 242.71875 "/>
<path style=" stroke:none;fill-rule:nonzero;fill:rgb(0%,80.000001%,86.666667%);fill-opacity:1;" d="M 390.078125 243.28125 C 391.039062 244.238281 391.921875 245.121094 392.800781 246.078125 L 223.519531 415.441406 C 222.558594 414.558594 221.601562 413.601562 220.71875 412.71875 C 219.761719 411.761719 218.878906 410.878906 218 409.921875 L 387.199219 240.558594 C 388.160156 241.441406 389.121094 242.398438 390.078125 243.28125 Z M 390.078125 243.28125 "/>
<path style=" stroke:none;fill-rule:nonzero;fill:rgb(10.980392%,83.529413%,89.411765%);fill-opacity:1;" d="M 390.71875 248.160156 L 392.800781 246.078125 C 391.921875 245.121094 390.960938 244.160156 390.078125 243.28125 C 389.121094 242.320312 388.238281 241.441406 387.28125 240.558594 L 385.199219 242.640625 C 387.039062 244.480469 388.878906 246.320312 390.71875 248.160156 Z M 218.320312 409.441406 L 217.921875 409.839844 C 218.800781 410.800781 219.761719 411.761719 220.640625 412.640625 C 221.519531 413.519531 222.480469 414.480469 223.441406 415.359375 L 223.761719 415.039062 C 221.921875 413.28125 220.078125 411.359375 218.320312 409.441406 Z M 218.320312 409.441406 "/>
<path style=" stroke:none;fill-rule:nonzero;fill:rgb(22.352941%,74.117649%,78.431374%);fill-opacity:1;" d="M 399.28125 328 C 399.28125 379.871094 357.230469 421.921875 305.359375 421.921875 C 253.488281 421.921875 211.441406 379.871094 211.441406 328 C 211.441406 276.128906 253.488281 234.078125 305.359375 234.078125 C 357.230469 234.078125 399.28125 276.128906 399.28125 328 Z M 399.28125 328 "/>
<path style=" stroke:none;fill-rule:nonzero;fill:rgb(10.980392%,83.529413%,89.411765%);fill-opacity:1;" d="M 390.078125 328 C 390.078125 374.789062 352.148438 412.71875 305.359375 412.71875 C 258.570312 412.71875 220.640625 374.789062 220.640625 328 C 220.640625 281.210938 258.570312 243.28125 305.359375 243.28125 C 352.148438 243.28125 390.078125 281.210938 390.078125 328 Z M 390.078125 328 "/>
<path style=" stroke:none;fill-rule:nonzero;fill:rgb(7.450981%,58.431375%,62.7451%);fill-opacity:1;" d="M 295.679688 371.359375 L 301.519531 343.761719 L 330.878906 323.601562 L 335.441406 300.960938 L 306.078125 321.199219 L 315.679688 278.238281 L 293.121094 278.238281 L 279.761719 339.28125 L 267.441406 347.761719 L 263.359375 369.839844 L 275.199219 361.761719 L 269.121094 390.71875 L 351.199219 390.71875 L 355.199219 371.359375 Z M 295.679688 371.359375 "/>
<path style=" stroke:none;fill-rule:nonzero;fill:rgb(100%,100%,100%);fill-opacity:1;" d="M 295.679688 361.519531 L 301.519531 333.921875 L 330.878906 313.761719 L 335.441406 291.121094 L 306.078125 311.359375 L 315.679688 268.480469 L 293.121094 268.480469 L 279.761719 329.441406 L 267.441406 338 L 263.359375 360 L 275.199219 351.921875 L 269.121094 380.878906 L 351.199219 380.878906 L 355.199219 361.519531 Z M 295.679688 361.519531 "/>
<path style=" stroke:none;fill-rule:nonzero;fill:rgb(98.039216%,75.294119%,88.235295%);fill-opacity:1;" d="M 351.199219 374.320312 L 270.480469 374.320312 L 269.121094 380.878906 L 351.199219 380.878906 L 355.199219 361.519531 L 353.839844 361.519531 Z M 351.199219 374.320312 "/>
<path style=" stroke:none;fill-rule:nonzero;fill:rgb(98.039216%,75.294119%,88.235295%);fill-opacity:1;" d="M 330.878906 313.761719 L 335.441406 291.121094 L 333.921875 292.238281 L 330.878906 307.199219 L 301.519531 327.28125 L 294.320312 361.519531 L 295.679688 361.519531 L 301.519531 333.921875 Z M 330.878906 313.761719 "/>
<path style=" stroke:none;fill-rule:nonzero;fill:rgb(98.039216%,75.294119%,88.235295%);fill-opacity:1;" d="M 306.078125 311.359375 L 315.679688 268.480469 L 314.160156 268.480469 L 304.398438 312.558594 Z M 306.078125 311.359375 "/>
<path style=" stroke:none;fill-rule:nonzero;fill:rgb(98.039216%,75.294119%,88.235295%);fill-opacity:1;" d="M 276.800781 344.238281 L 264.800781 352.480469 L 263.359375 360 L 275.199219 351.921875 Z M 276.800781 344.238281 "/>
<path style=" stroke:none;fill-rule:nonzero;fill:rgb(67.843139%,43.137255%,94.117647%);fill-opacity:1;" d="M 520.480469 497.28125 C 520.480469 498.558594 520.480469 499.921875 520.398438 501.199219 C 519.441406 531.28125 507.359375 558.640625 488.160156 579.121094 C 488.160156 579.121094 488.078125 579.199219 488.078125 579.199219 C 487.519531 579.761719 487.039062 580.320312 486.480469 580.878906 C 486.238281 581.121094 486 581.359375 485.761719 581.601562 L 485.441406 581.921875 C 484.480469 582.878906 483.601562 583.761719 482.640625 584.640625 C 462.558594 603.441406 436.078125 615.441406 406.71875 616.878906 C 406.078125 616.878906 405.359375 616.960938 404.71875 616.960938 L 404.558594 616.960938 C 404.480469 616.960938 404.398438 616.960938 404.320312 616.960938 C 404.160156 616.960938 404 616.960938 403.761719 616.960938 C 403.601562 616.960938 403.441406 616.960938 403.28125 616.960938 C 403.199219 616.960938 403.121094 616.960938 402.960938 616.960938 L 402.878906 616.960938 C 402.71875 616.960938 402.558594 616.960938 402.398438 616.960938 C 401.839844 616.960938 401.359375 616.960938 400.800781 616.960938 C 400.238281 616.960938 399.761719 616.960938 399.199219 616.960938 C 399.039062 616.960938 398.878906 616.960938 398.71875 616.960938 L 398.640625 616.960938 C 398.480469 616.960938 398.320312 616.960938 398.160156 616.960938 C 397.839844 616.960938 397.601562 616.960938 397.28125 616.960938 C 397.199219 616.960938 397.121094 616.960938 397.039062 616.960938 L 396.800781 616.960938 C 396.160156 616.960938 395.441406 616.960938 394.800781 616.878906 C 365.519531 615.441406 338.960938 603.519531 318.878906 584.640625 C 317.921875 583.761719 316.960938 582.878906 316.078125 581.921875 C 315.839844 581.679688 315.519531 581.359375 315.28125 581.121094 C 314.640625 580.480469 314.078125 579.839844 313.441406 579.199219 C 313.441406 579.199219 313.359375 579.121094 313.359375 579.121094 C 294.160156 558.558594 282.078125 531.28125 281.121094 501.199219 C 281.039062 499.921875 281.039062 498.558594 281.039062 497.28125 C 281.039062 496 281.039062 494.640625 281.121094 493.359375 C 282.078125 463.28125 294.160156 435.921875 313.359375 415.441406 C 313.359375 415.441406 313.441406 415.359375 313.441406 415.359375 C 314.078125 414.640625 314.71875 414 315.359375 413.359375 C 316.480469 412.160156 317.679688 411.039062 318.878906 409.921875 C 334.320312 395.441406 353.601562 385.039062 375.039062 380.320312 C 382.078125 378.800781 389.359375 377.839844 396.800781 377.601562 C 397.121094 377.601562 397.359375 377.601562 397.679688 377.601562 C 398.71875 377.601562 399.679688 377.601562 400.71875 377.601562 C 401.761719 377.601562 402.71875 377.601562 403.761719 377.601562 C 404.078125 377.601562 404.320312 377.601562 404.640625 377.601562 C 434.71875 378.558594 462.078125 390.640625 482.558594 409.921875 C 483.679688 410.960938 484.800781 412.078125 485.921875 413.199219 C 486.078125 413.359375 486.160156 413.441406 486.320312 413.601562 C 486.878906 414.160156 487.441406 414.800781 488.078125 415.441406 C 488.078125 415.441406 488.160156 415.519531 488.160156 415.519531 C 506.878906 435.519531 518.800781 461.921875 520.320312 491.121094 C 520.398438 491.921875 520.398438 492.71875 520.398438 493.519531 C 520.480469 494.640625 520.480469 495.921875 520.480469 497.28125 Z M 520.480469 497.28125 "/>
<path style=" stroke:none;fill-rule:nonzero;fill:rgb(40.000001%,16.078432%,65.490198%);fill-opacity:1;" d="M 518.800781 498.960938 C 518.800781 500.238281 518.800781 501.519531 518.71875 502.800781 C 516.71875 566.238281 464.640625 616.960938 400.71875 616.960938 C 336.800781 616.960938 284.800781 566.160156 282.71875 502.800781 C 282.640625 501.519531 282.640625 500.238281 282.640625 498.960938 C 282.640625 497.679688 282.640625 496.398438 282.71875 495.121094 C 284.71875 431.679688 336.800781 380.960938 400.71875 380.960938 C 464.640625 380.960938 516.640625 431.761719 518.71875 495.121094 C 518.71875 496.398438 518.800781 497.679688 518.800781 498.960938 Z M 518.800781 498.960938 "/>
<path style=" stroke:none;fill-rule:nonzero;fill:rgb(55.686277%,23.921569%,89.411765%);fill-opacity:1;" d="M 520.480469 497.28125 C 520.480469 498.558594 520.480469 499.921875 520.398438 501.199219 L 281.039062 501.199219 C 280.960938 499.921875 280.960938 498.558594 280.960938 497.28125 C 280.960938 496 280.960938 494.640625 281.039062 493.359375 L 520.398438 493.359375 C 520.480469 494.640625 520.480469 495.921875 520.480469 497.28125 Z M 520.480469 497.28125 "/>
<path style=" stroke:none;fill-rule:nonzero;fill:rgb(63.921571%,35.294119%,93.725491%);fill-opacity:1;" d="M 520.398438 493.28125 L 518.640625 493.28125 C 518.640625 493.839844 518.71875 494.480469 518.71875 495.039062 C 518.800781 496.320312 518.800781 497.601562 518.800781 498.878906 C 518.800781 499.601562 518.800781 500.320312 518.800781 501.121094 L 520.480469 501.121094 C 520.558594 499.839844 520.558594 498.480469 520.558594 497.199219 C 520.480469 495.921875 520.480469 494.640625 520.398438 493.28125 Z M 282.71875 498.960938 C 282.71875 497.679688 282.71875 496.398438 282.800781 495.121094 C 282.800781 494.558594 282.878906 493.921875 282.878906 493.359375 L 281.121094 493.359375 C 281.039062 494.640625 281.039062 496 281.039062 497.28125 C 281.039062 498.558594 281.039062 499.921875 281.121094 501.199219 L 282.800781 501.199219 C 282.71875 500.398438 282.71875 499.679688 282.71875 498.960938 Z M 282.71875 498.960938 "/>
<path style=" stroke:none;fill-rule:nonzero;fill:rgb(55.686277%,23.921569%,89.411765%);fill-opacity:1;" d="M 404.640625 377.519531 L 404.640625 616.878906 L 404.480469 616.878906 C 404.398438 616.878906 404.320312 616.878906 404.238281 616.878906 L 404.078125 616.878906 C 403.839844 616.878906 403.601562 616.878906 403.359375 616.878906 C 403.28125 616.878906 403.28125 616.878906 403.199219 616.878906 C 403.039062 616.878906 402.878906 616.878906 402.71875 616.878906 L 402.320312 616.878906 C 401.761719 616.878906 401.28125 616.878906 400.71875 616.878906 C 400.160156 616.878906 399.679688 616.878906 399.121094 616.878906 L 398.800781 616.878906 C 398.71875 616.878906 398.640625 616.878906 398.558594 616.878906 C 398.398438 616.878906 398.238281 616.878906 398.078125 616.878906 C 397.839844 616.878906 397.601562 616.878906 397.359375 616.878906 L 397.199219 616.878906 C 397.121094 616.878906 397.039062 616.878906 396.960938 616.878906 L 396.800781 616.878906 L 396.800781 377.519531 C 397.121094 377.519531 397.359375 377.519531 397.679688 377.519531 C 398.71875 377.519531 399.679688 377.519531 400.71875 377.519531 C 401.761719 377.519531 402.71875 377.519531 403.761719 377.519531 C 404.078125 377.519531 404.320312 377.519531 404.640625 377.519531 Z M 404.640625 377.519531 "/>
<path style=" stroke:none;fill-rule:nonzero;fill:rgb(63.921571%,35.294119%,93.725491%);fill-opacity:1;" d="M 396.800781 616.960938 C 396.960938 616.960938 397.199219 616.960938 397.359375 616.960938 C 397.199219 616.960938 396.960938 616.960938 396.800781 616.960938 Z M 404.640625 377.519531 L 404.640625 380.960938 C 404.480469 380.960938 404.320312 380.960938 404.238281 380.960938 C 403.921875 380.960938 403.601562 380.960938 403.199219 380.960938 C 402.398438 380.960938 401.519531 380.960938 400.71875 380.960938 C 399.921875 380.960938 399.039062 380.960938 398.238281 380.960938 C 397.921875 380.960938 397.519531 380.960938 397.199219 380.960938 C 397.039062 380.960938 396.878906 380.960938 396.800781 380.960938 L 396.800781 377.519531 C 397.121094 377.519531 397.359375 377.519531 397.679688 377.519531 C 398.71875 377.519531 399.679688 377.519531 400.71875 377.519531 C 401.761719 377.519531 402.71875 377.519531 403.761719 377.519531 C 404.078125 377.519531 404.320312 377.519531 404.640625 377.519531 Z M 400.71875 617.039062 C 401.601562 617.039062 402.480469 617.039062 403.359375 617.039062 C 402.480469 616.960938 401.601562 617.039062 400.71875 617.039062 Z M 404.078125 616.960938 C 404.238281 616.960938 404.480469 616.960938 404.640625 616.960938 C 404.480469 616.960938 404.238281 616.960938 404.078125 616.960938 Z M 400.71875 617.039062 C 399.839844 617.039062 398.960938 617.039062 398.078125 617.039062 C 398.960938 616.960938 399.839844 617.039062 400.71875 617.039062 Z M 400.71875 617.039062 "/>
<path style=" stroke:none;fill-rule:nonzero;fill:rgb(55.686277%,23.921569%,89.411765%);fill-opacity:1;" d="M 485.441406 581.921875 C 484.480469 582.878906 483.601562 583.761719 482.640625 584.640625 L 313.28125 415.359375 C 314.160156 414.398438 315.121094 413.441406 316 412.558594 C 316.960938 411.601562 317.839844 410.71875 318.800781 409.839844 L 488.078125 579.121094 C 487.28125 580.078125 486.320312 580.960938 485.441406 581.921875 Z M 485.441406 581.921875 "/>
<path style=" stroke:none;fill-rule:nonzero;fill:rgb(63.921571%,35.294119%,93.725491%);fill-opacity:1;" d="M 482.238281 584.320312 L 482.558594 584.640625 C 483.519531 583.761719 484.480469 582.800781 485.359375 581.921875 C 486.320312 580.960938 487.199219 580.078125 488.078125 579.121094 L 487.679688 578.71875 C 486 580.640625 484.160156 582.480469 482.238281 584.320312 Z M 320.960938 411.921875 L 318.878906 409.839844 C 317.921875 410.71875 316.960938 411.679688 316.078125 412.558594 C 315.121094 413.519531 314.238281 414.398438 313.359375 415.359375 L 315.441406 417.441406 C 317.199219 415.519531 319.039062 413.679688 320.960938 411.921875 Z M 320.960938 411.921875 "/>
<path style=" stroke:none;fill-rule:nonzero;fill:rgb(55.686277%,23.921569%,89.411765%);fill-opacity:1;" d="M 488.160156 415.359375 L 394 509.519531 L 388 515.441406 L 373.839844 529.601562 L 371.039062 532.398438 L 318.878906 584.558594 C 317.921875 583.679688 316.960938 582.800781 316.078125 581.839844 C 315.839844 581.601562 315.519531 581.28125 315.28125 581.039062 C 314.640625 580.398438 314.078125 579.761719 313.441406 579.121094 C 313.441406 579.121094 313.359375 579.039062 313.359375 579.039062 L 313.761719 578.640625 L 331.679688 560.71875 L 369.359375 523.039062 L 370.640625 521.761719 L 373.28125 519.121094 L 426.238281 466.160156 L 482.71875 409.679688 C 482.960938 409.921875 483.28125 410.238281 483.519531 410.480469 C 484.078125 410.960938 484.558594 411.441406 485.039062 412 C 485.199219 412.160156 485.359375 412.320312 485.519531 412.398438 C 485.679688 412.558594 485.839844 412.800781 486.078125 412.960938 C 486.238281 413.121094 486.320312 413.199219 486.480469 413.359375 C 486.640625 413.519531 486.800781 413.679688 486.960938 413.839844 C 487.359375 414.320312 487.839844 414.71875 488.238281 415.199219 C 488.078125 415.359375 488.078125 415.359375 488.160156 415.359375 Z M 488.160156 415.359375 "/>
<path style=" stroke:none;fill-rule:nonzero;fill:rgb(63.921571%,35.294119%,93.725491%);fill-opacity:1;" d="M 488.160156 415.359375 L 486.078125 417.441406 C 485.601562 416.960938 485.199219 416.480469 484.71875 416 C 484.238281 415.519531 483.761719 415.039062 483.359375 414.640625 C 482.960938 414.238281 482.558594 413.921875 482.160156 413.519531 L 481.601562 412.960938 C 481.28125 412.640625 480.878906 412.320312 480.558594 411.921875 L 482.640625 409.839844 C 482.878906 410.078125 483.199219 410.398438 483.441406 410.640625 C 484 411.121094 484.480469 411.601562 484.960938 412.160156 C 485.121094 412.320312 485.28125 412.480469 485.441406 412.558594 C 485.601562 412.71875 485.761719 412.960938 486 413.121094 C 486.160156 413.28125 486.238281 413.359375 486.398438 413.519531 C 486.558594 413.679688 486.71875 413.839844 486.878906 414 C 487.28125 414.398438 487.679688 414.878906 488.160156 415.359375 Z M 313.679688 578.71875 L 313.28125 579.121094 C 314.160156 580.078125 315.121094 581.039062 316 581.921875 C 316.960938 582.878906 317.839844 583.761719 318.800781 584.640625 L 319.121094 584.320312 C 317.28125 582.480469 315.441406 580.640625 313.679688 578.71875 Z M 313.679688 578.71875 "/>
<path style=" stroke:none;fill-rule:nonzero;fill:rgb(67.843139%,43.137255%,94.117647%);fill-opacity:1;" d="M 494.640625 497.28125 C 494.640625 549.152344 452.589844 591.199219 400.71875 591.199219 C 348.847656 591.199219 306.800781 549.152344 306.800781 497.28125 C 306.800781 445.410156 348.847656 403.359375 400.71875 403.359375 C 452.589844 403.359375 494.640625 445.410156 494.640625 497.28125 Z M 494.640625 497.28125 "/>
<path style=" stroke:none;fill-rule:nonzero;fill:rgb(63.921571%,35.294119%,93.725491%);fill-opacity:1;" d="M 485.441406 497.28125 C 485.441406 544.070312 447.507812 582 400.71875 582 C 353.929688 582 316 544.070312 316 497.28125 C 316 450.492188 353.929688 412.558594 400.71875 412.558594 C 447.507812 412.558594 485.441406 450.492188 485.441406 497.28125 Z M 485.441406 497.28125 "/>
<path style=" stroke:none;fill-rule:nonzero;fill:rgb(40.000001%,16.078432%,65.490198%);fill-opacity:1;" d="M 444.238281 502.558594 L 403.761719 436.640625 C 402.878906 435.199219 400.800781 435.199219 399.839844 436.640625 L 359.359375 502.558594 C 358.71875 503.601562 359.039062 505.039062 360.160156 505.679688 L 400.640625 530.078125 C 401.359375 530.480469 402.238281 530.480469 402.960938 530.078125 L 443.441406 505.679688 C 444.558594 505.039062 444.878906 503.601562 444.238281 502.558594 Z M 444.238281 502.558594 "/>
<path style=" stroke:none;fill-rule:nonzero;fill:rgb(40.000001%,16.078432%,65.490198%);fill-opacity:1;" d="M 442.320312 516.160156 L 403.039062 540.320312 C 402.320312 540.800781 401.359375 540.800781 400.640625 540.320312 L 361.359375 516.160156 C 360.640625 515.761719 359.839844 516.558594 360.320312 517.28125 L 399.921875 573.679688 C 400.800781 574.960938 402.71875 574.960938 403.679688 573.679688 L 443.28125 517.28125 C 443.761719 516.558594 442.960938 515.761719 442.320312 516.160156 Z M 442.320312 516.160156 "/>
<path style=" stroke:none;fill-rule:nonzero;fill:rgb(100%,100%,100%);fill-opacity:1;" d="M 444.238281 495.679688 L 403.761719 429.761719 C 402.878906 428.320312 400.800781 428.320312 399.839844 429.761719 L 359.359375 495.679688 C 358.71875 496.71875 359.039062 498.160156 360.160156 498.800781 L 400.640625 523.199219 C 401.359375 523.601562 402.238281 523.601562 402.960938 523.199219 L 443.441406 498.800781 C 444.558594 498.160156 444.878906 496.71875 444.238281 495.679688 Z M 444.238281 495.679688 "/>
<path style=" stroke:none;fill-rule:nonzero;fill:rgb(100%,100%,100%);fill-opacity:1;" d="M 442.320312 509.28125 L 403.039062 533.441406 C 402.320312 533.921875 401.359375 533.921875 400.640625 533.441406 L 361.359375 509.28125 C 360.640625 508.878906 359.839844 509.679688 360.320312 510.398438 L 399.921875 566.800781 C 400.800781 568.078125 402.71875 568.078125 403.679688 566.800781 L 443.28125 510.398438 C 443.761719 509.761719 442.960938 508.878906 442.320312 509.28125 Z M 442.320312 509.28125 "/>
<path style=" stroke:none;fill-rule:nonzero;fill:rgb(98.039216%,75.294119%,88.235295%);fill-opacity:1;" d="M 441.121094 490.640625 L 403.039062 513.601562 C 402.320312 514 401.441406 514 400.71875 513.601562 L 362.558594 490.640625 L 359.441406 495.679688 C 358.800781 496.71875 359.121094 498.160156 360.238281 498.800781 L 400.71875 523.199219 C 401.441406 523.601562 402.320312 523.601562 403.039062 523.199219 L 443.519531 498.800781 C 444.640625 498.160156 444.960938 496.71875 444.320312 495.679688 Z M 441.121094 490.640625 "/>
<path style=" stroke:none;fill-rule:nonzero;fill:rgb(98.039216%,75.294119%,88.235295%);fill-opacity:1;" d="M 442.320312 509.28125 L 433.601562 514.640625 L 403.679688 557.199219 C 402.800781 558.480469 400.878906 558.480469 399.921875 557.199219 L 370 514.640625 L 361.28125 509.28125 C 360.558594 508.878906 359.761719 509.679688 360.238281 510.398438 L 399.839844 566.800781 C 400.71875 568.078125 402.640625 568.078125 403.601562 566.800781 L 443.199219 510.398438 C 443.761719 509.761719 442.960938 508.878906 442.320312 509.28125 Z M 442.320312 509.28125 "/>
<path style=" stroke:none;fill-rule:nonzero;fill:rgb(40.000001%,16.078432%,65.490198%);fill-opacity:1;" d="M 488.160156 415.359375 C 487.679688 414.878906 487.28125 414.398438 486.800781 413.921875 C 486.640625 413.761719 486.480469 413.601562 486.320312 413.441406 C 486.160156 413.28125 486.078125 413.199219 485.921875 413.039062 C 485.761719 412.878906 485.601562 412.640625 485.359375 412.480469 C 485.199219 412.320312 485.039062 412.160156 484.878906 412.078125 C 484.398438 411.601562 483.839844 411.039062 483.359375 410.558594 C 483.121094 410.320312 482.800781 410 482.558594 409.761719 C 462.078125 390.558594 434.71875 378.398438 404.640625 377.441406 C 404.320312 377.441406 404.078125 377.441406 403.761719 377.441406 C 402.71875 377.441406 401.761719 377.441406 400.71875 377.441406 C 399.679688 377.441406 398.71875 377.441406 397.679688 377.441406 C 397.359375 377.441406 397.121094 377.441406 396.800781 377.441406 C 389.359375 377.679688 382.078125 378.558594 375.039062 380.160156 C 375.121094 381.28125 375.199219 382.480469 375.28125 383.601562 C 375.921875 391.199219 377.199219 398.640625 379.199219 405.761719 C 380 408.71875 380.960938 411.679688 382 414.558594 C 385.121094 423.199219 389.199219 431.441406 394.160156 439.039062 L 399.921875 429.679688 C 400.800781 428.238281 402.878906 428.238281 403.839844 429.679688 L 432.320312 476.160156 C 447.839844 485.679688 465.761719 491.761719 484.960938 493.28125 C 485.121094 493.28125 485.28125 493.28125 485.441406 493.28125 C 487.199219 493.441406 489.039062 493.519531 490.800781 493.601562 C 490.960938 493.601562 491.121094 493.601562 491.28125 493.601562 C 491.441406 493.601562 491.601562 493.601562 491.761719 493.601562 C 492.71875 493.601562 493.679688 493.601562 494.71875 493.601562 L 494.800781 493.601562 C 495.761719 493.601562 496.800781 493.601562 497.761719 493.601562 C 497.921875 493.601562 498.078125 493.601562 498.238281 493.601562 C 498.398438 493.601562 498.558594 493.601562 498.71875 493.601562 C 500.640625 493.519531 502.640625 493.441406 504.558594 493.28125 C 509.359375 492.878906 514.078125 492.238281 518.640625 491.28125 C 519.199219 491.199219 519.839844 491.039062 520.398438 490.878906 C 518.800781 461.761719 506.878906 435.359375 488.160156 415.359375 Z M 488.160156 415.359375 "/>
<path style=" stroke:none;fill-rule:nonzero;fill:rgb(79.215688%,64.705884%,94.509804%);fill-opacity:1;" d="M 403.761719 429.761719 C 402.878906 428.320312 400.800781 428.320312 399.839844 429.761719 L 394.078125 439.121094 C 394.800781 440.238281 395.519531 441.28125 396.320312 442.398438 C 396.480469 442.640625 396.640625 442.800781 396.800781 443.039062 C 399.199219 446.480469 401.839844 449.839844 404.640625 452.960938 C 406.238281 454.800781 407.921875 456.640625 409.679688 458.398438 C 409.761719 458.480469 409.839844 458.558594 409.921875 458.640625 C 410.078125 458.800781 410.160156 458.878906 410.320312 459.039062 C 410.960938 459.679688 411.679688 460.398438 412.398438 461.039062 C 412.480469 461.121094 412.640625 461.28125 412.71875 461.359375 C 415.839844 464.320312 419.199219 467.121094 422.640625 469.679688 C 423.441406 470.320312 424.320312 470.878906 425.121094 471.519531 C 426.480469 472.480469 427.761719 473.359375 429.199219 474.238281 C 430.238281 474.878906 431.199219 475.519531 432.238281 476.160156 Z M 403.761719 429.761719 "/>
<path style=" stroke:none;fill-rule:nonzero;fill:rgb(100%,20.784314%,65.882355%);fill-opacity:1;" d="M 614.398438 364.160156 C 614.398438 365.441406 614.398438 366.800781 614.320312 368.078125 C 612.238281 432.398438 559.441406 483.921875 494.640625 483.921875 C 429.839844 483.921875 377.039062 432.398438 374.960938 368.078125 C 374.878906 366.800781 374.878906 365.441406 374.878906 364.160156 C 374.878906 362.878906 374.878906 361.519531 374.960938 360.238281 C 377.039062 295.921875 429.839844 244.398438 494.640625 244.398438 C 559.441406 244.398438 612.238281 295.921875 614.320312 360.238281 C 614.398438 361.519531 614.398438 362.800781 614.398438 364.160156 Z M 614.398438 364.160156 "/>
<path style=" stroke:none;fill-rule:nonzero;fill:rgb(90.588236%,15.294118%,58.039218%);fill-opacity:1;" d="M 612.71875 365.839844 C 612.71875 367.121094 612.71875 368.398438 612.640625 369.679688 C 610.640625 433.121094 558.558594 483.839844 494.640625 483.839844 C 430.71875 483.839844 378.71875 433.039062 376.640625 369.679688 C 376.558594 368.398438 376.558594 367.121094 376.558594 365.839844 C 376.558594 364.558594 376.558594 363.28125 376.640625 362 C 378.640625 298.558594 430.71875 247.839844 494.640625 247.839844 C 558.558594 247.839844 610.558594 298.640625 612.640625 362 C 612.640625 363.28125 612.71875 364.558594 612.71875 365.839844 Z M 612.71875 365.839844 "/>
<path style=" stroke:none;fill-rule:nonzero;fill:rgb(96.862745%,8.235294%,58.823532%);fill-opacity:1;" d="M 614.398438 364.160156 C 614.398438 365.441406 614.398438 366.800781 614.320312 368.078125 L 374.960938 368.078125 C 374.878906 366.800781 374.878906 365.441406 374.878906 364.160156 C 374.878906 362.878906 374.878906 361.519531 374.960938 360.238281 L 614.320312 360.238281 C 614.398438 361.519531 614.398438 362.800781 614.398438 364.160156 Z M 614.398438 364.160156 "/>
<path style=" stroke:none;fill-rule:nonzero;fill:rgb(99.607843%,22.745098%,66.666669%);fill-opacity:1;" d="M 614.320312 360.238281 L 612.558594 360.238281 C 612.558594 360.800781 612.640625 361.441406 612.640625 362 C 612.71875 363.28125 612.71875 364.558594 612.71875 365.839844 C 612.71875 366.558594 612.71875 367.28125 612.71875 368.078125 L 614.398438 368.078125 C 614.480469 366.800781 614.480469 365.441406 614.480469 364.160156 C 614.398438 362.800781 614.398438 361.519531 614.320312 360.238281 Z M 376.558594 365.839844 C 376.558594 364.558594 376.558594 363.28125 376.640625 362 C 376.640625 361.441406 376.71875 360.800781 376.71875 360.238281 L 374.960938 360.238281 C 374.878906 361.519531 374.878906 362.878906 374.878906 364.160156 C 374.878906 365.441406 374.878906 366.800781 374.960938 368.078125 L 376.640625 368.078125 C 376.640625 367.359375 376.558594 366.640625 376.558594 365.839844 Z M 376.558594 365.839844 "/>
<path style=" stroke:none;fill-rule:nonzero;fill:rgb(96.862745%,8.235294%,58.823532%);fill-opacity:1;" d="M 494.640625 244.398438 C 495.921875 244.398438 497.28125 244.398438 498.558594 244.480469 L 498.558594 483.839844 C 497.28125 483.921875 495.921875 483.921875 494.640625 483.921875 C 493.359375 483.921875 492 483.921875 490.71875 483.839844 L 490.71875 244.480469 C 492 244.398438 493.359375 244.398438 494.640625 244.398438 Z M 494.640625 244.398438 "/>
<path style=" stroke:none;fill-rule:nonzero;fill:rgb(99.607843%,22.745098%,66.666669%);fill-opacity:1;" d="M 490.71875 483.839844 C 490.878906 483.839844 491.121094 483.839844 491.28125 483.839844 C 491.121094 483.839844 490.878906 483.839844 490.71875 483.839844 Z M 494.640625 247.839844 C 495.921875 247.839844 497.28125 247.839844 498.558594 247.921875 L 498.558594 244.480469 C 497.28125 244.398438 495.921875 244.398438 494.640625 244.398438 C 493.359375 244.398438 492 244.398438 490.71875 244.480469 L 490.71875 247.921875 C 492 247.839844 493.359375 247.839844 494.640625 247.839844 Z M 494.640625 483.921875 C 495.519531 483.921875 496.398438 483.921875 497.28125 483.921875 C 496.398438 483.921875 495.519531 483.921875 494.640625 483.921875 Z M 498 483.839844 C 498.160156 483.839844 498.398438 483.839844 498.558594 483.839844 C 498.398438 483.839844 498.160156 483.839844 498 483.839844 Z M 494.640625 483.921875 C 493.761719 483.921875 492.878906 483.921875 492 483.921875 C 492.878906 483.921875 493.761719 483.921875 494.640625 483.921875 Z M 494.640625 483.921875 "/>
<path style=" stroke:none;fill-rule:nonzero;fill:rgb(96.862745%,8.235294%,58.823532%);fill-opacity:1;" d="M 579.359375 448.800781 C 578.398438 449.761719 577.519531 450.640625 576.558594 451.519531 L 407.199219 282.320312 C 408.078125 281.359375 409.039062 280.398438 409.921875 279.519531 C 410.878906 278.558594 411.761719 277.679688 412.71875 276.800781 L 582 446.078125 C 581.199219 446.960938 580.238281 447.921875 579.359375 448.800781 Z M 579.359375 448.800781 "/>
<path style=" stroke:none;fill-rule:nonzero;fill:rgb(99.607843%,22.745098%,66.666669%);fill-opacity:1;" d="M 576.160156 451.199219 L 576.480469 451.519531 C 577.441406 450.640625 578.398438 449.679688 579.28125 448.800781 C 580.160156 447.921875 581.121094 446.960938 582 446 L 581.601562 445.601562 C 579.921875 447.519531 578.078125 449.441406 576.160156 451.199219 Z M 414.878906 278.878906 L 412.800781 276.800781 C 411.839844 277.679688 410.878906 278.640625 410 279.519531 C 409.039062 280.480469 408.160156 281.359375 407.28125 282.320312 L 409.359375 284.398438 C 411.121094 282.480469 412.960938 280.640625 414.878906 278.878906 Z M 414.878906 278.878906 "/>
<path style=" stroke:none;fill-rule:nonzero;fill:rgb(96.862745%,8.235294%,58.823532%);fill-opacity:1;" d="M 579.359375 279.441406 C 580.320312 280.398438 581.199219 281.28125 582.078125 282.238281 L 412.800781 451.601562 C 411.839844 450.71875 410.878906 449.761719 410 448.878906 C 409.039062 447.921875 408.160156 447.039062 407.28125 446.078125 L 576.558594 276.800781 C 577.441406 277.601562 578.398438 278.558594 579.359375 279.441406 Z M 579.359375 279.441406 "/>
<path style=" stroke:none;fill-rule:nonzero;fill:rgb(99.607843%,22.745098%,66.666669%);fill-opacity:1;" d="M 580 284.320312 L 582.078125 282.238281 C 581.199219 281.28125 580.238281 280.320312 579.359375 279.441406 C 578.398438 278.480469 577.519531 277.601562 576.558594 276.71875 L 574.480469 278.800781 C 576.320312 280.640625 578.160156 282.480469 580 284.320312 Z M 407.601562 445.601562 L 407.199219 446 C 408.078125 446.960938 409.039062 447.921875 409.921875 448.800781 C 410.878906 449.761719 411.761719 450.640625 412.71875 451.519531 L 413.039062 451.199219 C 411.199219 449.441406 409.359375 447.519531 407.601562 445.601562 Z M 407.601562 445.601562 "/>
<path style=" stroke:none;fill-rule:nonzero;fill:rgb(100%,20.784314%,65.882355%);fill-opacity:1;" d="M 588.558594 364.160156 C 588.558594 416.03125 546.511719 458.078125 494.640625 458.078125 C 442.769531 458.078125 400.71875 416.03125 400.71875 364.160156 C 400.71875 312.289062 442.769531 270.238281 494.640625 270.238281 C 546.511719 270.238281 588.558594 312.289062 588.558594 364.160156 Z M 588.558594 364.160156 "/>
<path style=" stroke:none;fill-rule:nonzero;fill:rgb(99.607843%,22.745098%,66.666669%);fill-opacity:1;" d="M 579.359375 364.160156 C 579.359375 410.949219 541.429688 448.878906 494.640625 448.878906 C 447.851562 448.878906 409.921875 410.949219 409.921875 364.160156 C 409.921875 317.371094 447.851562 279.441406 494.640625 279.441406 C 541.429688 279.441406 579.359375 317.371094 579.359375 364.160156 Z M 579.359375 364.160156 "/>
<path style=" stroke:none;fill-rule:nonzero;fill:rgb(90.588236%,15.294118%,58.039218%);fill-opacity:1;" d="M 533.921875 383.679688 C 532.71875 380.71875 531.039062 378 528.878906 375.679688 C 527.601562 374.238281 526.160156 373.039062 524.558594 371.921875 C 525.441406 371.121094 526.160156 370.238281 526.878906 369.28125 C 528.558594 367.039062 529.839844 364.480469 530.640625 361.679688 C 531.441406 358.960938 531.839844 356.078125 531.839844 353.121094 C 531.839844 348.558594 531.039062 344.480469 529.359375 340.960938 C 527.679688 337.359375 525.199219 334.320312 522.078125 332 C 519.039062 329.761719 515.441406 328.078125 511.28125 327.039062 C 509.761719 326.640625 508.160156 326.320312 506.480469 326.160156 L 506.480469 316.160156 C 506.480469 312.160156 503.28125 308.960938 499.28125 308.960938 C 495.28125 308.960938 492.078125 312.160156 492.078125 316.160156 L 492.078125 325.601562 L 484.558594 325.601562 L 484.558594 316.160156 C 484.558594 312.160156 481.359375 308.960938 477.359375 308.960938 C 473.359375 308.960938 470.160156 312.160156 470.160156 316.160156 L 470.160156 325.601562 L 460.71875 325.601562 C 456.71875 325.601562 453.519531 328.800781 453.519531 332.800781 C 453.519531 336.800781 456.71875 340 460.71875 340 L 470.160156 340 L 470.160156 408 L 460.71875 408 C 456.71875 408 453.519531 411.199219 453.519531 415.199219 C 453.519531 419.199219 456.71875 422.398438 460.71875 422.398438 L 470.160156 422.398438 L 470.160156 431.839844 C 470.160156 435.839844 473.359375 439.039062 477.359375 439.039062 C 481.359375 439.039062 484.558594 435.839844 484.558594 431.839844 L 484.558594 422.398438 L 492.078125 422.398438 L 492.078125 431.839844 C 492.078125 435.839844 495.28125 439.039062 499.28125 439.039062 C 503.28125 439.039062 506.480469 435.839844 506.480469 431.839844 L 506.480469 422.320312 C 509.839844 422.078125 513.039062 421.519531 516.078125 420.640625 C 520.078125 419.359375 523.519531 417.519531 526.480469 415.039062 C 529.441406 412.480469 531.761719 409.359375 533.441406 405.601562 C 535.039062 401.921875 535.839844 397.761719 535.839844 393.199219 C 535.839844 389.921875 535.199219 386.640625 533.921875 383.679688 Z M 492.078125 339.921875 L 498.320312 339.921875 C 505.28125 339.921875 510.320312 341.121094 513.519531 343.441406 C 515.199219 344.71875 517.441406 347.039062 517.441406 352.800781 C 517.441406 359.441406 514.640625 361.601562 513.761719 362.238281 C 510.800781 364.480469 506 365.601562 499.519531 365.601562 L 484.640625 365.601562 L 484.640625 339.839844 L 492.078125 339.839844 Z M 520.238281 399.679688 C 519.519531 401.441406 518.480469 402.878906 517.121094 404 C 515.679688 405.199219 513.921875 406.160156 511.761719 406.878906 C 509.441406 407.601562 506.71875 408 503.761719 408 L 484.640625 408 L 484.640625 380.160156 L 504.320312 380.160156 C 507.441406 380.160156 510.160156 380.558594 512.320312 381.359375 C 514.480469 382.160156 516.160156 383.121094 517.519531 384.398438 C 518.800781 385.601562 519.761719 386.960938 520.398438 388.398438 C 521.039062 390 521.359375 391.601562 521.359375 393.28125 C 521.359375 395.679688 520.960938 397.839844 520.238281 399.679688 Z M 520.238281 399.679688 "/>
<path style=" stroke:none;fill-rule:nonzero;fill:rgb(100%,100%,100%);fill-opacity:1;" d="M 533.921875 373.839844 C 532.71875 370.878906 531.039062 368.160156 528.878906 365.839844 C 527.601562 364.398438 526.160156 363.199219 524.558594 362.078125 C 525.441406 361.28125 526.160156 360.398438 526.878906 359.441406 C 528.558594 357.199219 529.839844 354.640625 530.640625 351.839844 C 531.441406 349.121094 531.839844 346.238281 531.839844 343.28125 C 531.839844 338.71875 531.039062 334.640625 529.359375 331.121094 C 527.679688 327.519531 525.199219 324.480469 522.078125 322.160156 C 519.039062 319.921875 515.441406 318.238281 511.28125 317.199219 C 509.761719 316.800781 508.160156 316.480469 506.480469 316.320312 L 506.480469 306.320312 C 506.480469 302.320312 503.28125 299.121094 499.28125 299.121094 C 495.28125 299.121094 492.078125 302.320312 492.078125 306.320312 L 492.078125 315.761719 L 484.558594 315.761719 L 484.558594 306.320312 C 484.558594 302.320312 481.359375 299.121094 477.359375 299.121094 C 473.359375 299.121094 470.160156 302.320312 470.160156 306.320312 L 470.160156 315.761719 L 460.71875 315.761719 C 456.71875 315.761719 453.519531 318.960938 453.519531 322.960938 C 453.519531 326.960938 456.71875 330.160156 460.71875 330.160156 L 470.160156 330.160156 L 470.160156 398.160156 L 460.71875 398.160156 C 456.71875 398.160156 453.519531 401.359375 453.519531 405.359375 C 453.519531 409.359375 456.71875 412.558594 460.71875 412.558594 L 470.160156 412.558594 L 470.160156 422 C 470.160156 426 473.359375 429.199219 477.359375 429.199219 C 481.359375 429.199219 484.558594 426 484.558594 422 L 484.558594 412.558594 L 492.078125 412.558594 L 492.078125 422 C 492.078125 426 495.28125 429.199219 499.28125 429.199219 C 503.28125 429.199219 506.480469 426 506.480469 422 L 506.480469 412.480469 C 509.839844 412.238281 513.039062 411.679688 516.078125 410.800781 C 520.078125 409.519531 523.519531 407.679688 526.480469 405.199219 C 529.441406 402.640625 531.761719 399.519531 533.441406 395.761719 C 535.039062 392.078125 535.839844 387.921875 535.839844 383.359375 C 535.839844 380.078125 535.199219 376.878906 533.921875 373.839844 Z M 492.078125 330.160156 L 498.320312 330.160156 C 505.28125 330.160156 510.320312 331.359375 513.519531 333.679688 C 515.199219 334.960938 517.441406 337.28125 517.441406 343.039062 C 517.441406 349.679688 514.640625 351.839844 513.761719 352.480469 C 510.800781 354.71875 506 355.839844 499.519531 355.839844 L 484.640625 355.839844 L 484.640625 330.078125 L 492.078125 330.078125 Z M 520.238281 389.839844 C 519.519531 391.601562 518.480469 393.039062 517.121094 394.160156 C 515.679688 395.359375 513.921875 396.320312 511.761719 397.039062 C 509.441406 397.761719 506.71875 398.160156 503.761719 398.160156 L 484.640625 398.160156 L 484.640625 370.320312 L 504.320312 370.320312 C 507.441406 370.320312 510.160156 370.71875 512.320312 371.519531 C 514.480469 372.320312 516.160156 373.28125 517.519531 374.558594 C 518.800781 375.761719 519.761719 377.121094 520.398438 378.558594 C 521.039062 380.160156 521.359375 381.761719 521.359375 383.441406 C 521.359375 385.921875 520.960938 388 520.238281 389.839844 Z M 520.238281 389.839844 "/>
<path style=" stroke:none;fill-rule:nonzero;fill:rgb(98.039216%,75.294119%,88.235295%);fill-opacity:1;" d="M 470.160156 408.640625 L 460.71875 408.640625 C 457.441406 408.640625 454.640625 406.398438 453.761719 403.359375 C 453.601562 404 453.519531 404.640625 453.519531 405.359375 C 453.519531 409.359375 456.71875 412.558594 460.71875 412.558594 L 470.160156 412.558594 Z M 526.960938 355.519531 C 526.238281 356.480469 525.441406 357.359375 524.640625 358.160156 C 525.359375 358.640625 526.078125 359.199219 526.71875 359.761719 C 526.800781 359.679688 526.878906 359.519531 526.960938 359.441406 C 528.640625 357.199219 529.921875 354.640625 530.71875 351.839844 C 531.519531 349.121094 531.921875 346.238281 531.921875 343.28125 C 531.921875 342.558594 531.921875 341.921875 531.839844 341.199219 C 531.679688 343.519531 531.359375 345.761719 530.71875 347.921875 C 529.921875 350.71875 528.640625 353.28125 526.960938 355.519531 Z M 484.558594 326.238281 L 484.558594 330.160156 L 498.320312 330.160156 C 505.28125 330.160156 510.320312 331.359375 513.519531 333.679688 C 515.039062 334.800781 516.960938 336.71875 517.359375 341.121094 C 517.441406 340.480469 517.441406 339.839844 517.441406 339.121094 C 517.441406 333.359375 515.199219 330.960938 513.519531 329.761719 C 510.398438 327.441406 505.28125 326.238281 498.320312 326.238281 Z M 520.398438 374.640625 C 519.761719 373.121094 518.800781 371.839844 517.519531 370.640625 C 516.160156 369.441406 514.480469 368.398438 512.320312 367.601562 C 510.078125 366.800781 507.441406 366.398438 504.320312 366.398438 L 484.640625 366.398438 L 484.640625 370.320312 L 504.320312 370.320312 C 507.441406 370.320312 510.160156 370.71875 512.320312 371.519531 C 514.480469 372.320312 516.160156 373.28125 517.519531 374.558594 C 518.800781 375.761719 519.761719 377.121094 520.398438 378.558594 C 520.800781 379.601562 521.121094 380.640625 521.28125 381.761719 C 521.359375 381.039062 521.441406 380.320312 521.441406 379.601562 C 521.359375 377.839844 521.039062 376.238281 520.398438 374.640625 Z M 460.71875 330.160156 L 470.160156 330.160156 L 470.160156 326.238281 L 460.71875 326.238281 C 457.441406 326.238281 454.640625 324 453.761719 320.960938 C 453.601562 321.601562 453.519531 322.238281 453.519531 322.960938 C 453.441406 326.878906 456.71875 330.160156 460.71875 330.160156 Z M 499.28125 425.359375 C 495.28125 425.359375 492.078125 422.160156 492.078125 418.160156 L 492.078125 422.078125 C 492.078125 426.078125 495.28125 429.28125 499.28125 429.28125 C 503.28125 429.28125 506.480469 426.078125 506.480469 422.078125 L 506.480469 418.160156 C 506.558594 422.078125 503.28125 425.359375 499.28125 425.359375 Z M 477.359375 425.359375 C 473.359375 425.359375 470.160156 422.160156 470.160156 418.160156 L 470.160156 422.078125 C 470.160156 426.078125 473.359375 429.28125 477.359375 429.28125 C 481.359375 429.28125 484.558594 426.078125 484.558594 422.078125 L 484.558594 418.160156 C 484.558594 422.078125 481.359375 425.359375 477.359375 425.359375 Z M 533.359375 391.839844 C 531.761719 395.519531 529.359375 398.71875 526.398438 401.28125 C 523.519531 403.761719 520 405.679688 516 406.878906 C 513.039062 407.839844 509.839844 408.398438 506.398438 408.558594 L 506.398438 412.480469 C 509.761719 412.238281 512.960938 411.679688 516 410.800781 C 520 409.519531 523.441406 407.679688 526.398438 405.199219 C 529.359375 402.640625 531.679688 399.519531 533.359375 395.761719 C 534.960938 392.078125 535.761719 387.921875 535.761719 383.359375 C 535.761719 382.800781 535.761719 382.160156 535.679688 381.601562 C 535.519531 385.359375 534.71875 388.800781 533.359375 391.839844 Z M 533.359375 391.839844 "/>
<path style=" stroke:none;fill-rule:nonzero;fill:rgb(98.039216%,75.294119%,88.235295%);fill-opacity:1;" d="M 492.078125 408.640625 L 484.558594 408.640625 L 484.558594 412.558594 L 492.078125 412.558594 Z M 492.078125 408.640625 "/>
</g>
</svg>
