<?xml version="1.0" encoding="iso-8859-1"?>
<!-- Uploaded to: SVG Repo, www.svgrepo.com, Generator: SVG Repo Mixer Tools -->
<svg height="800px" width="800px" version="1.1" id="Layer_1" xmlns="http://www.w3.org/2000/svg" xmlns:xlink="http://www.w3.org/1999/xlink" 
	 viewBox="0 0 512 512" xml:space="preserve">
<path style="fill:#EDEDED;" d="M467.478,489.739H44.522c-12.295,0-22.261-9.966-22.261-22.261V44.522
	c0-12.295,9.966-22.261,22.261-22.261h422.956c12.295,0,22.261,9.966,22.261,22.261v422.957
	C489.739,479.773,479.773,489.739,467.478,489.739z"/>
<path style="fill:#92B703;" d="M138.684,147.522L150.411,256H30.052V100.174h55.889
	C113.033,100.174,135.772,120.587,138.684,147.522z M478.997,145.881l-1.381-5.524c-5.904-23.615-27.123-40.183-51.465-40.183l0,0
	c-27.091,0-49.831,20.413-52.743,47.348L361.439,256h128.393v-22.113C489.832,204.22,486.193,174.663,478.997,145.881z"/>
<path style="fill:#FF6029;" d="M361.439,256l-19.301,178.539C337.374,478.604,300.172,512,255.85,512l0,0
	c-44.323,0-81.524-33.396-86.288-77.461L150.261,256H361.439z"/>
<path style="fill:#777777;" d="M509.555,261.904l-22.261,22.261c-1.629,1.63-3.767,2.444-5.902,2.444
	c-2.136,0-4.273-0.815-5.902-2.444c-3.26-3.261-3.26-8.546,0-11.806l8.011-8.009H38.957v219.152l8.011-8.011
	c3.26-3.259,8.546-3.259,11.805,0c3.26,3.261,3.26,8.546,0,11.806l-22.261,22.261c-1.629,1.628-3.765,2.443-5.902,2.443
	s-4.273-0.815-5.902-2.444L2.445,487.295c-3.26-3.261-3.26-8.546,0-11.806c3.26-3.259,8.546-3.259,11.805,0l8.011,8.011V28.501
	l-8.011,8.011c-3.26,3.259-8.546,3.259-11.805,0c-3.26-3.261-3.26-8.546,0-11.806L24.706,2.444c3.26-3.259,8.546-3.259,11.805,0
	l22.261,22.261c3.26,3.261,3.26,8.546,0,11.806c-1.629,1.629-3.765,2.445-5.902,2.445c-2.137,0-4.273-0.815-5.902-2.444
	l-8.011-8.012v219.152h444.542l-8.011-8.009c-3.26-3.261-3.26-8.546,0-11.806c3.26-3.259,8.546-3.259,11.805,0l22.261,22.261
	C512.815,253.358,512.815,258.642,509.555,261.904z"/>
</svg>